<?xml version="1.0" encoding="UTF-8"?>
<!-- Generator: https://ezgif.com/webp-to-svg -->
<svg version="1.1" xmlns="http://www.w3.org/2000/svg" width="180" height="180">
<path d="M0 0 C1.32 0 2.64 0 4 0 C4 3.3 4 6.6 4 10 C4.99 13.96 4.99 13.96 6 18 C6 19.98 6 21.96 6 24 C7.65 24 9.3 24 11 24 C11 23.34 11 22.68 11 22 C12.32 22 13.64 22 15 22 C15 22.66 15 23.32 15 24 C19.45 25.98 19.45 25.98 24 28 C23.5 30.48 23.5 30.48 23 33 C21.35 33.99 19.7 34.98 18 36 C16.02 38.64 14.04 41.28 12 44 C11.67 50.93 11.34 57.86 11 65 C12.32 67.31 13.64 69.62 15 72 C15 75.63 15 79.26 15 83 C15.66 84.65 16.32 86.3 17 88 C16.67 90.64 16.34 93.28 16 96 C14.35 97.65 12.7 99.3 11 101 C7.53 104.96 7.53 104.96 4 109 C5.98 109.5 5.98 109.5 8 110 C8 111.32 8 112.64 8 114 C5.36 113.67 2.72 113.34 0 113 C-0.66 112.67 -1.32 112.34 -2 112 C-2.5 113.49 -2.5 113.49 -3 115 C-1.51 115.5 -1.51 115.5 0 116 C0 116.99 0 117.98 0 119 C-2.31 118.67 -4.62 118.34 -7 118 C-8.32 116.02 -9.64 114.04 -11 112 C-11.99 112 -12.98 112 -14 112 C-14.66 111.34 -15.32 110.68 -16 110 C-16.99 110 -17.98 110 -19 110 C-19.5 111.49 -19.5 111.49 -20 113 C-19.34 114.65 -18.68 116.3 -18 118 C-18.33 120.31 -18.66 122.62 -19 125 C-20.98 125 -22.96 125 -25 125 C-26.65 126.65 -28.3 128.3 -30 130 C-30.66 136.6 -31.32 143.2 -32 150 C-33.32 150.99 -34.64 151.98 -36 153 C-37.98 153 -39.96 153 -42 153 C-42.66 152.67 -43.32 152.34 -44 152 C-44.5 149.52 -44.5 149.52 -45 147 C-46.98 148.98 -46.98 148.98 -49 151 C-51.31 151 -53.62 151 -56 151 C-56.66 149.68 -57.32 148.36 -58 147 C-58.06 146.37 -58.12 145.74 -58.18 145.09 C-58.71 139.72 -59.31 134.36 -60 129 C-61.65 128.34 -63.3 127.68 -65 127 C-65.33 125.68 -65.66 124.36 -66 123 C-66.66 123 -67.32 123 -68 123 C-68 121.35 -68 119.7 -68 118 C-69.98 118 -71.96 118 -74 118 C-74.66 117.34 -75.32 116.68 -76 116 C-76.66 113.69 -77.32 111.38 -78 109 C-78.66 107.68 -79.32 106.36 -80 105 C-80.5 102.53 -80.5 102.53 -81 100 C-81.66 99.34 -82.32 98.68 -83 98 C-83 96.68 -83 95.36 -83 94 C-81.52 93.5 -81.52 93.5 -80 93 C-81.32 91.35 -82.64 89.7 -84 88 C-84.5 85.03 -84.5 85.03 -85 82 C-84.34 79.69 -83.68 77.38 -83 75 C-83 69.06 -83 63.12 -83 57 C-83.5 55.52 -83.5 55.52 -84 54 C-84 49.05 -84 44.1 -84 39 C-82.68 35.37 -81.36 31.74 -80 28 C-77.69 25.03 -75.38 22.06 -73 19 C-70.03 17.02 -67.06 15.04 -64 13 C-60.37 11.68 -56.74 10.36 -53 9 C-51.35 8.67 -49.7 8.34 -48 8 C-44.37 8 -40.74 8 -37 8 C-31.56 9.48 -31.56 9.48 -26 11 C-21.05 13.48 -21.05 13.48 -16 16 C-13.36 12.7 -10.72 9.4 -8 6 C-6.02 4.35 -4.04 2.7 -2 1 C-1.34 0.67 -0.68 0.34 0 0 Z M-12 78 C-12 81.63 -12 85.26 -12 89 C-11.01 88.01 -10.02 87.02 -9 86 C-9.66 83.36 -10.32 80.72 -11 78 C-11.33 78 -11.66 78 -12 78 Z M-71 79 C-70.34 80.98 -69.68 82.96 -69 85 C-67.02 87.64 -65.04 90.28 -63 93 C-61.35 91.35 -59.7 89.7 -58 88 C-58.33 87.01 -58.66 86.02 -59 85 C-61.64 84.01 -64.28 83.02 -67 82 C-68.32 81.01 -69.64 80.02 -71 79 Z M-28 85 C-29.98 85.66 -31.96 86.32 -34 87 C-33.34 88.65 -32.68 90.3 -32 92 C-30.68 91.34 -29.36 90.68 -28 90 C-27.34 88.35 -26.68 86.7 -26 85 C-26.66 85 -27.32 85 -28 85 Z M-17 97 C-17.99 97.99 -18.98 98.98 -20 100 C-19.34 101.98 -18.68 103.96 -18 106 C-17.67 106 -17.34 106 -17 106 C-16.67 103.03 -16.34 100.06 -16 97 C-16.33 97 -16.66 97 -17 97 Z M-64 112 C-64.66 113.98 -65.32 115.96 -66 118 C-65.34 118.66 -64.68 119.32 -64 120 C-63.67 117.36 -63.34 114.72 -63 112 C-63.33 112 -63.66 112 -64 112 Z " fill="#FAEBE5" transform="translate(136,26)"/>
<path d="M0 0 C1.32 0 2.64 0 4 0 C4 3.3 4 6.6 4 10 C4.99 13.96 4.99 13.96 6 18 C6 19.98 6 21.96 6 24 C7.65 24 9.3 24 11 24 C11 23.34 11 22.68 11 22 C12.32 22 13.64 22 15 22 C15 22.66 15 23.32 15 24 C19.45 25.98 19.45 25.98 24 28 C23.5 30.48 23.5 30.48 23 33 C21.35 33.99 19.7 34.98 18 36 C16.02 38.64 14.04 41.28 12 44 C11.67 50.93 11.34 57.86 11 65 C12.32 67.31 13.64 69.62 15 72 C15 75.63 15 79.26 15 83 C15.66 84.65 16.32 86.3 17 88 C16.67 90.64 16.34 93.28 16 96 C14.35 97.65 12.7 99.3 11 101 C7.53 104.96 7.53 104.96 4 109 C5.98 109.5 5.98 109.5 8 110 C8 111.32 8 112.64 8 114 C5.36 113.67 2.72 113.34 0 113 C-0.66 112.67 -1.32 112.34 -2 112 C-2.5 113.49 -2.5 113.49 -3 115 C-1.51 115.5 -1.51 115.5 0 116 C0 116.99 0 117.98 0 119 C-2.31 118.67 -4.62 118.34 -7 118 C-8.32 116.02 -9.64 114.04 -11 112 C-11.99 112 -12.98 112 -14 112 C-14.66 111.34 -15.32 110.68 -16 110 C-16.99 110 -17.98 110 -19 110 C-19.5 111.49 -19.5 111.49 -20 113 C-19.34 114.65 -18.68 116.3 -18 118 C-18.33 120.31 -18.66 122.62 -19 125 C-20.98 125 -22.96 125 -25 125 C-26.65 126.65 -28.3 128.3 -30 130 C-30.66 136.6 -31.32 143.2 -32 150 C-33.32 150.99 -34.64 151.98 -36 153 C-37.98 153 -39.96 153 -42 153 C-42.66 152.67 -43.32 152.34 -44 152 C-44.5 149.52 -44.5 149.52 -45 147 C-46.98 148.98 -46.98 148.98 -49 151 C-51.31 151 -53.62 151 -56 151 C-56.66 149.68 -57.32 148.36 -58 147 C-58.06 146.37 -58.12 145.74 -58.18 145.09 C-58.71 139.72 -59.31 134.36 -60 129 C-61.65 128.34 -63.3 127.68 -65 127 C-65.33 125.68 -65.66 124.36 -66 123 C-66.66 123 -67.32 123 -68 123 C-68 121.35 -68 119.7 -68 118 C-69.98 118 -71.96 118 -74 118 C-74.66 117.34 -75.32 116.68 -76 116 C-76.66 113.69 -77.32 111.38 -78 109 C-78.66 107.68 -79.32 106.36 -80 105 C-80.5 102.53 -80.5 102.53 -81 100 C-81.66 99.34 -82.32 98.68 -83 98 C-83 96.68 -83 95.36 -83 94 C-81.52 93.5 -81.52 93.5 -80 93 C-81.32 91.35 -82.64 89.7 -84 88 C-84.5 85.03 -84.5 85.03 -85 82 C-84.34 79.69 -83.68 77.38 -83 75 C-83 69.06 -83 63.12 -83 57 C-83.5 55.52 -83.5 55.52 -84 54 C-84 49.05 -84 44.1 -84 39 C-82.68 35.37 -81.36 31.74 -80 28 C-77.69 25.03 -75.38 22.06 -73 19 C-70.03 17.02 -67.06 15.04 -64 13 C-60.37 11.68 -56.74 10.36 -53 9 C-51.35 8.67 -49.7 8.34 -48 8 C-44.37 8 -40.74 8 -37 8 C-31.56 9.48 -31.56 9.48 -26 11 C-21.05 13.48 -21.05 13.48 -16 16 C-13.36 12.7 -10.72 9.4 -8 6 C-6.02 4.35 -4.04 2.7 -2 1 C-1.34 0.67 -0.68 0.34 0 0 Z M-48 11 C-52.95 12.32 -57.9 13.64 -63 15 C-65.97 17.31 -68.94 19.62 -72 22 C-73.98 24.31 -75.96 26.62 -78 29 C-78.33 29.66 -78.66 30.32 -79 31 C-79 32.98 -79 34.96 -79 37 C-78.34 37 -77.68 37 -77 37 C-77.99 40.3 -78.98 43.6 -80 47 C-80 55.91 -80 64.82 -80 74 C-80.66 75.98 -81.32 77.96 -82 80 C-82 82.31 -82 84.62 -82 87 C-80.35 88.65 -78.7 90.3 -77 92 C-77.66 93.98 -78.32 95.96 -79 98 C-78.34 98.33 -77.68 98.66 -77 99 C-77 100.98 -77 102.96 -77 105 C-76.01 106.65 -75.02 108.3 -74 110 C-73.34 110 -72.68 110 -72 110 C-71.67 107.69 -71.34 105.38 -71 103 C-69.52 102.5 -69.52 102.5 -68 102 C-67.34 101.01 -66.68 100.02 -66 99 C-66 96.69 -66 94.38 -66 92 C-68.31 89.03 -70.62 86.06 -73 83 C-73.66 74.75 -74.32 66.5 -75 58 C-73.68 57.34 -72.36 56.68 -71 56 C-71 55.01 -71 54.02 -71 53 C-69.02 53.66 -67.04 54.32 -65 55 C-63.35 55.99 -61.7 56.98 -60 58 C-59.34 58.99 -58.68 59.98 -58 61 C-58.33 62.98 -58.66 64.96 -59 67 C-59.33 67.66 -59.66 68.32 -60 69 C-61.98 69 -63.96 69 -66 69 C-66.5 67.52 -66.5 67.52 -67 66 C-66.34 66.66 -65.68 67.32 -65 68 C-62.53 67.5 -62.53 67.5 -60 67 C-60 65.68 -60 64.36 -60 63 C-61.98 63.5 -61.98 63.5 -64 64 C-64.5 61.53 -64.5 61.53 -65 59 C-65.99 59 -66.98 59 -68 59 C-68.5 57.52 -68.5 57.52 -69 56 C-69.99 56.66 -70.98 57.32 -72 58 C-72.33 59.32 -72.66 60.64 -73 62 C-73 64.31 -73 66.62 -73 69 C-72.01 71.64 -71.02 74.28 -70 77 C-68.35 78.32 -66.7 79.64 -65 81 C-61.7 82.32 -58.4 83.64 -55 85 C-54.01 85 -53.02 85 -52 85 C-52.66 86.98 -53.32 88.96 -54 91 C-49.71 91.33 -45.42 91.66 -41 92 C-39.35 94.97 -37.7 97.94 -36 101 C-35.01 99.68 -34.02 98.36 -33 97 C-33.33 95.02 -33.66 93.04 -34 91 C-35.32 90.01 -36.64 89.02 -38 88 C-38.66 88 -39.32 88 -40 88 C-40 87.34 -40 86.68 -40 86 C-36.04 85.01 -32.08 84.02 -28 83 C-26.68 81.68 -25.36 80.36 -24 79 C-24.66 79 -25.32 79 -26 79 C-25.01 77.35 -24.02 75.7 -23 74 C-23.33 73.01 -23.66 72.02 -24 71 C-24.67 69 -25.33 67 -26 65 C-26.99 64.5 -26.99 64.5 -28 64 C-28.66 67.3 -29.32 70.6 -30 74 C-32.64 74 -35.28 74 -38 74 C-38 73.67 -38 73.34 -38 73 C-35.69 73.33 -33.38 73.66 -31 74 C-30.67 72.02 -30.34 70.04 -30 68 C-32.97 68.5 -32.97 68.5 -36 69 C-36 68.01 -36 67.02 -36 66 C-38.47 66.5 -38.47 66.5 -41 67 C-40.67 66.01 -40.34 65.02 -40 64 C-38.02 63.01 -36.04 62.02 -34 61 C-31.03 60.5 -31.03 60.5 -28 60 C-30.47 58.02 -30.47 58.02 -33 56 C-34.98 53.69 -36.96 51.38 -39 49 C-39.66 49 -40.32 49 -41 49 C-41 47.68 -41 46.36 -41 45 C-40.34 45 -39.68 45 -39 45 C-38.34 46.98 -37.68 48.96 -37 51 C-34.36 53.31 -31.72 55.62 -29 58 C-26.69 58.33 -24.38 58.66 -22 59 C-21.5 58.01 -21.5 58.01 -21 57 C-21 61.29 -21 65.58 -21 70 C-21.29 71.28 -21.58 72.56 -21.88 73.88 C-22.99 78.9 -24 83.95 -25 89 C-27.31 91.64 -29.62 94.28 -32 97 C-32.33 97.66 -32.66 98.32 -33 99 C-33 100.98 -33 102.96 -33 105 C-31.68 106.98 -30.36 108.96 -29 111 C-29.5 112.49 -29.5 112.49 -30 114 C-29.67 115.32 -29.34 116.64 -29 118 C-28.34 118 -27.68 118 -27 118 C-26.67 118.99 -26.34 119.98 -26 121 C-25.34 121 -24.68 121 -24 121 C-24 121.66 -24 122.32 -24 123 C-22.68 123 -21.36 123 -20 123 C-20 121.02 -20 119.04 -20 117 C-20.66 117 -21.32 117 -22 117 C-22 113.7 -22 110.4 -22 107 C-21.34 107 -20.68 107 -20 107 C-20.5 102.55 -20.5 102.55 -21 98 C-19.68 96.68 -18.36 95.36 -17 94 C-16.01 92.52 -16.01 92.52 -15 91 C-14.67 86.38 -14.34 81.76 -14 77 C-12.68 75.35 -11.36 73.7 -10 72 C-9.67 72 -9.34 72 -9 72 C-9 77.28 -9 82.56 -9 88 C-10.65 90.64 -12.3 93.28 -14 96 C-14 97.98 -14 99.96 -14 102 C-12.68 100.35 -11.36 98.7 -10 97 C-8.68 96.34 -7.36 95.68 -6 95 C-6 95.66 -6 96.32 -6 97 C-6.66 97 -7.32 97 -8 97 C-7.5 103.93 -7.5 103.93 -7 111 C-5.68 109.68 -4.36 108.36 -3 107 C-2.01 106.67 -1.02 106.34 0 106 C0.33 106.99 0.66 107.98 1 109 C1.66 107.35 2.32 105.7 3 104 C5.64 102.02 8.28 100.04 11 98 C11.99 96.35 12.98 94.7 14 93 C14 90.36 14 87.72 14 85 C13.67 83.35 13.34 81.7 13 80 C13 77.69 13 75.38 13 73 C11.68 71.02 10.36 69.04 9 67 C9 59.74 9 52.48 9 45 C4.71 45 0.42 45 -4 45 C-5.98 42.69 -7.96 40.38 -10 38 C-11.65 35.03 -13.3 32.06 -15 29 C-15.5 24.55 -15.5 24.55 -16 20 C-17.32 19.34 -18.64 18.68 -20 18 C-20 17.34 -20 16.68 -20 16 C-23.63 14.68 -27.26 13.36 -31 12 C-32.98 11.67 -34.96 11.34 -37 11 C-40.63 11 -44.26 11 -48 11 Z M-12 78 C-12 81.63 -12 85.26 -12 89 C-11.01 88.01 -10.02 87.02 -9 86 C-9.66 83.36 -10.32 80.72 -11 78 C-11.33 78 -11.66 78 -12 78 Z M-71 79 C-70.34 80.98 -69.68 82.96 -69 85 C-67.02 87.64 -65.04 90.28 -63 93 C-61.35 91.35 -59.7 89.7 -58 88 C-58.33 87.01 -58.66 86.02 -59 85 C-61.64 84.01 -64.28 83.02 -67 82 C-68.32 81.01 -69.64 80.02 -71 79 Z M-28 85 C-29.98 85.66 -31.96 86.32 -34 87 C-33.34 88.65 -32.68 90.3 -32 92 C-30.68 91.34 -29.36 90.68 -28 90 C-27.34 88.35 -26.68 86.7 -26 85 C-26.66 85 -27.32 85 -28 85 Z M-17 97 C-17.99 97.99 -18.98 98.98 -20 100 C-19.34 101.98 -18.68 103.96 -18 106 C-17.67 106 -17.34 106 -17 106 C-16.67 103.03 -16.34 100.06 -16 97 C-16.33 97 -16.66 97 -17 97 Z M-64 112 C-64.66 113.98 -65.32 115.96 -66 118 C-65.34 118.66 -64.68 119.32 -64 120 C-63.67 117.36 -63.34 114.72 -63 112 C-63.33 112 -63.66 112 -64 112 Z " fill="#9C404D" transform="translate(136,26)"/>
<path d="M0 0 C1.32 0 2.64 0 4 0 C4 3.3 4 6.6 4 10 C4.99 13.96 4.99 13.96 6 18 C6 19.98 6 21.96 6 24 C7.65 24 9.3 24 11 24 C11 23.34 11 22.68 11 22 C12.32 22 13.64 22 15 22 C15 22.66 15 23.32 15 24 C19.45 25.98 19.45 25.98 24 28 C23.5 30.48 23.5 30.48 23 33 C21.35 33.99 19.7 34.98 18 36 C16.02 38.64 14.04 41.28 12 44 C11.67 50.93 11.34 57.86 11 65 C12.32 67.31 13.64 69.62 15 72 C15 75.63 15 79.26 15 83 C15.66 84.65 16.32 86.3 17 88 C16.67 90.64 16.34 93.28 16 96 C14.35 97.65 12.7 99.3 11 101 C7.53 104.96 7.53 104.96 4 109 C5.98 109.5 5.98 109.5 8 110 C8 111.32 8 112.64 8 114 C5.36 113.67 2.72 113.34 0 113 C-0.66 112.67 -1.32 112.34 -2 112 C-2.5 113.49 -2.5 113.49 -3 115 C-2.01 115.33 -1.02 115.66 0 116 C0 116.99 0 117.98 0 119 C-2.31 118.67 -4.62 118.34 -7 118 C-8.32 116.02 -9.64 114.04 -11 112 C-11.99 112 -12.98 112 -14 112 C-14.99 111.01 -14.99 111.01 -16 110 C-16.99 110 -17.98 110 -19 110 C-19.5 111.49 -19.5 111.49 -20 113 C-19.34 114.65 -18.68 116.3 -18 118 C-18.33 120.31 -18.66 122.62 -19 125 C-20.98 125 -22.96 125 -25 125 C-26.65 126.65 -28.3 128.3 -30 130 C-30.66 136.6 -31.32 143.2 -32 150 C-33.32 150.99 -34.64 151.98 -36 153 C-37.98 153 -39.96 153 -42 153 C-42.66 152.67 -43.32 152.34 -44 152 C-44.33 150.35 -44.66 148.7 -45 147 C-46.98 148.98 -46.98 148.98 -49 151 C-51.31 151 -53.62 151 -56 151 C-56.66 149.68 -57.32 148.36 -58 147 C-58.09 146.06 -58.09 146.06 -58.18 145.09 C-58.71 139.72 -59.31 134.36 -60 129 C-61.65 128.34 -63.3 127.68 -65 127 C-65.33 125.68 -65.66 124.36 -66 123 C-65.01 122.5 -65.01 122.5 -64 122 C-64 122.99 -64 123.98 -64 125 C-62.35 125.66 -60.7 126.32 -59 127 C-58.01 129.97 -57.02 132.94 -56 136 C-55.67 138.97 -55.34 141.94 -55 145 C-52.36 144.67 -49.72 144.34 -47 144 C-47 139.38 -47 134.76 -47 130 C-46.01 130 -45.02 130 -44 130 C-43.34 132.97 -42.68 135.94 -42 139 C-42 141.64 -42 144.28 -42 147 C-39.03 146.67 -36.06 146.34 -33 146 C-33.5 137.09 -33.5 137.09 -34 128 C-31.53 127.5 -31.53 127.5 -29 127 C-29.5 123.53 -29.5 123.53 -30 120 C-29.01 120 -28.02 120 -27 120 C-27 120.66 -27 121.32 -27 122 C-24.69 122.33 -22.38 122.66 -20 123 C-20 121.02 -20 119.04 -20 117 C-20.66 117 -21.32 117 -22 117 C-22.33 115.02 -22.66 113.04 -23 111 C-22.5 109.02 -22.5 109.02 -22 107 C-21.34 107 -20.68 107 -20 107 C-20.66 106.01 -21.32 105.02 -22 104 C-22 102.02 -22 100.04 -22 98 C-21.01 97.67 -20.02 97.34 -19 97 C-18.34 95.35 -17.68 93.7 -17 92 C-16.67 91.67 -16.34 91.34 -16 91 C-15.67 86.38 -15.34 81.76 -15 77 C-13.68 75.35 -12.36 73.7 -11 72 C-10.34 70.35 -9.68 68.7 -9 67 C-8.67 67 -8.34 67 -8 67 C-8 73.93 -8 80.86 -8 88 C-9.65 90.64 -11.3 93.28 -13 96 C-13 97.32 -13 98.64 -13 100 C-11.35 98.02 -9.7 96.04 -8 94 C-7.01 94.33 -6.02 94.66 -5 95 C-5.33 95.66 -5.66 96.32 -6 97 C-6.66 97 -7.32 97 -8 97 C-7.34 100.96 -6.68 104.92 -6 109 C-5.01 108.01 -4.02 107.02 -3 106 C-1.68 106 -0.36 106 1 106 C1.76 105.24 2.53 104.47 3.31 103.69 C5.21 101.79 7.1 99.9 9 98 C9.66 98 10.32 98 11 98 C11.66 96.35 12.32 94.7 13 93 C13 90.36 13 87.72 13 85 C12.67 83.35 12.34 81.7 12 80 C12 77.69 12 75.38 12 73 C10.68 71.02 9.36 69.04 8 67 C8.33 59.74 8.66 52.48 9 45 C7.68 45.33 6.36 45.66 5 46 C2.03 46 -0.94 46 -4 46 C-6.31 43.36 -8.62 40.72 -11 38 C-10.34 33.05 -9.68 28.1 -9 23 C-8.34 22.01 -7.68 21.02 -7 20 C-5.68 20.66 -4.36 21.32 -3 22 C-3 24.97 -3 27.94 -3 31 C-3.33 31.66 -3.66 32.32 -4 33 C-2.02 32.51 -2.02 32.51 0 32 C0.66 31.34 1.32 30.68 2 30 C2 26.7 2 23.4 2 20 C1.01 17.52 1.01 17.52 0 15 C0 12.03 0 9.06 0 6 C-5.44 10.45 -5.44 10.45 -11 15 C-11.66 15 -12.32 15 -13 15 C-13.33 15.99 -13.66 16.98 -14 18 C-14.5 16.52 -14.5 16.52 -15 15 C-12.69 12.03 -10.38 9.06 -8 6 C-6.02 4.35 -4.04 2.7 -2 1 C-1.34 0.67 -0.68 0.34 0 0 Z M-12 78 C-12 81.63 -12 85.26 -12 89 C-11.01 88.01 -10.02 87.02 -9 86 C-9.66 83.36 -10.32 80.72 -11 78 C-11.33 78 -11.66 78 -12 78 Z M-17 97 C-17.99 97.99 -18.98 98.98 -20 100 C-19.34 101.98 -18.68 103.96 -18 106 C-17.67 106 -17.34 106 -17 106 C-16.67 103.03 -16.34 100.06 -16 97 C-16.33 97 -16.66 97 -17 97 Z " fill="#9C4C4C" transform="translate(136,26)"/>
<path d="M0 0 C0.66 0.33 1.32 0.66 2 1 C6.29 1 10.58 1 15 1 C15 8.26 15 15.52 15 23 C16.98 25.97 16.98 25.97 19 29 C19 32.63 19 36.26 19 40 C19.5 40.5 19.5 40.5 20 41 C20 43.64 20 46.28 20 49 C19.01 50.65 18.02 52.3 17 54 C14.36 55.98 11.72 57.96 9 60 C8.01 62.47 8.01 62.47 7 65 C6.67 64.01 6.34 63.02 6 62 C4.35 62.99 2.7 63.98 1 65 C0.01 65.99 0.01 65.99 -1 67 C-1.33 62.38 -1.66 57.76 -2 53 C-1.34 53 -0.68 53 0 53 C0 52.34 0 51.68 0 51 C-1.32 51.66 -2.64 52.32 -4 53 C-5.32 54.65 -6.64 56.3 -8 58 C-8 56.02 -8 54.04 -8 52 C-6.35 49.36 -4.7 46.72 -3 44 C-3 38.06 -3 32.12 -3 26 C-4.32 27.98 -5.64 29.96 -7 32 C-7.99 32.5 -7.99 32.5 -9 33 C-9 28.05 -9 23.1 -9 18 C-6.53 18.99 -6.53 18.99 -4 20 C-3.01 20.66 -2.02 21.32 -1 22 C-0.34 19.03 0.32 16.06 1 13 C1.33 12.34 1.66 11.68 2 11 C2 8.69 2 6.38 2 4 C1.34 2.68 0.68 1.36 0 0 Z " fill="#E8AEAA" transform="translate(130,70)"/>
<path d="M0 0 C0.66 0 1.32 0 2 0 C2.33 2.97 2.66 5.94 3 9 C3.99 9.33 4.98 9.66 6 10 C6.33 10.99 6.66 11.98 7 13 C7.66 13 8.32 13 9 13 C9 13.66 9 14.32 9 15 C10.65 14.67 12.3 14.34 14 14 C14.66 12.02 15.32 10.04 16 8 C16.66 8 17.32 8 18 8 C19.32 10.64 20.64 13.28 22 16 C22 17.65 22 19.3 22 21 C20.02 21.66 18.04 22.32 16 23 C16 23.66 16 24.32 16 25 C18.97 24.34 21.94 23.68 25 23 C25 25.97 25 28.94 25 32 C23.02 32.99 21.04 33.98 19 35 C15.7 35 12.4 35 9 35 C8.5 32.53 8.5 32.53 8 30 C7.34 30.33 6.68 30.66 6 31 C5.67 31.99 5.34 32.98 5 34 C2.03 34 -0.94 34 -4 34 C-4.66 33.67 -5.32 33.34 -6 33 C-6.33 33.99 -6.66 34.98 -7 36 C-7 35.01 -7 34.02 -7 33 C-8.98 33.5 -8.98 33.5 -11 34 C-11 32.35 -11 30.7 -11 29 C-10.01 29 -9.02 29 -8 29 C-7.01 29.99 -6.02 30.98 -5 32 C-4.5 27.55 -4.5 27.55 -4 23 C-3.67 22.67 -3.34 22.34 -3 22 C-3 19.69 -3 17.38 -3 15 C-4.98 17.64 -6.96 20.28 -9 23 C-9.33 23.99 -9.66 24.98 -10 26 C-11.98 26.33 -13.96 26.66 -16 27 C-16 25.68 -16 24.36 -16 23 C-15.34 23 -14.68 23 -14 23 C-13.67 21.02 -13.34 19.04 -13 17 C-12.56 16.44 -12.13 15.89 -11.68 15.31 C-7.73 10.25 -3.83 5.15 0 0 Z " fill="#EBDDD9" transform="translate(79,115)"/>
<path d="M0 0 C0.66 0 1.32 0 2 0 C2.5 4.45 2.5 4.45 3 9 C3.99 11.48 3.99 11.48 5 14 C5 17.3 5 20.6 5 24 C3.68 25.32 2.36 26.64 1 28 C-0.32 27.67 -1.64 27.34 -3 27 C-2.67 26.34 -2.34 25.68 -2 25 C-2 22.03 -2 19.06 -2 16 C-2.99 15.67 -3.98 15.34 -5 15 C-5.33 15.66 -5.66 16.32 -6 17 C-6.66 20.96 -7.32 24.92 -8 29 C-8.66 29.33 -9.32 29.66 -10 30 C-11.32 27.69 -12.64 25.38 -14 23 C-14.5 18.55 -14.5 18.55 -15 14 C-15.99 13.34 -16.98 12.68 -18 12 C-18 11.34 -18 10.68 -18 10 C-18.84 9.82 -18.84 9.82 -19.69 9.63 C-24.82 8.51 -29.91 7.3 -35 6 C-38.63 6 -42.26 6 -46 6 C-50.95 7.32 -55.9 8.64 -61 10 C-63.97 12.31 -66.94 14.62 -70 17 C-71.98 19.64 -73.96 22.28 -76 25 C-76.33 26.98 -76.66 28.96 -77 31 C-76.34 31 -75.68 31 -75 31 C-75.66 34.3 -76.32 37.6 -77 41 C-77 49.91 -77 58.82 -77 68 C-77.33 68 -77.66 68 -78 68 C-78.66 62.06 -79.32 56.12 -80 50 C-80 42.08 -80 34.16 -80 26 C-78.02 22.7 -76.04 19.4 -74 16 C-70.7 13.36 -67.4 10.72 -64 8 C-59.71 6.35 -55.42 4.7 -51 3 C-49.35 2.67 -47.7 2.34 -46 2 C-42.37 2 -38.74 2 -35 2 C-29.56 3.48 -29.56 3.48 -24 5 C-18 8 -18 8 -12 11 C-10.68 9.68 -9.36 8.36 -8 7 C-4.04 3.53 -4.04 3.53 0 0 Z " fill="#974E4D" transform="translate(134,32)"/>
<path d="M0 0 C0.99 0.99 1.98 1.98 3 3 C3.5 5.97 3.5 5.97 4 9 C4.99 8.67 5.98 8.34 7 8 C7 9.32 7 10.64 7 12 C7.66 12.33 8.32 12.66 9 13 C8.01 13 7.02 13 6 13 C6 12.34 6 11.68 6 11 C5.34 11.33 4.68 11.66 4 12 C4 13.98 4 15.96 4 18 C2.02 18.99 2.02 18.99 0 20 C0 25.61 0 31.22 0 37 C-4.45 37.5 -4.45 37.5 -9 38 C-9.66 32.39 -10.32 26.78 -11 21 C-11.99 21 -12.98 21 -14 21 C-14 25.62 -14 30.24 -14 35 C-14.99 35.5 -14.99 35.5 -16 36 C-17.98 36 -19.96 36 -22 36 C-23.32 30.39 -24.64 24.78 -26 19 C-27.32 18.01 -28.64 17.02 -30 16 C-30 15.01 -30 14.02 -30 13 C-26.37 13.33 -22.74 13.66 -19 14 C-18.67 12.68 -18.34 11.36 -18 10 C-17.34 10 -16.68 10 -16 10 C-15.67 11.65 -15.34 13.3 -15 15 C-10.71 14.34 -6.42 13.68 -2 13 C-1.34 12.67 -0.68 12.34 0 12 C-0.33 11.34 -0.66 10.68 -1 10 C-0.34 10 0.32 10 1 10 C0.5 5.05 0.5 5.05 0 0 Z " fill="#463542" transform="translate(103,135)"/>
<path d="M0 0 C1.32 0 2.64 0 4 0 C4 3.3 4 6.6 4 10 C4.66 12.64 5.32 15.28 6 18 C6 19.98 6 21.96 6 24 C7.65 24 9.3 24 11 24 C11 23.34 11 22.68 11 22 C12.32 22 13.64 22 15 22 C15 22.66 15 23.32 15 24 C19.45 25.98 19.45 25.98 24 28 C23.5 30.48 23.5 30.48 23 33 C21.35 33.99 19.7 34.98 18 36 C16.02 38.64 14.04 41.28 12 44 C10.02 44 8.04 44 6 44 C7.65 42.35 9.3 40.7 11 39 C13.64 35.7 16.28 32.4 19 29 C14.35 28.23 9.68 27.58 5 27 C4.67 28.65 4.34 30.3 4 32 C4.99 32 5.98 32 7 32 C7 32.99 7 33.98 7 35 C6.34 35 5.68 35 5 35 C4.67 35.99 4.34 36.98 4 38 C2.68 38.66 1.36 39.32 0 40 C-0.99 40 -1.98 40 -3 40 C-2.34 41.65 -1.68 43.3 -1 45 C-2.65 44.67 -4.3 44.34 -6 44 C-7.65 42.02 -9.3 40.04 -11 38 C-10.34 33.05 -9.68 28.1 -9 23 C-8.34 22.01 -7.68 21.02 -7 20 C-5.68 20.66 -4.36 21.32 -3 22 C-3 24.97 -3 27.94 -3 31 C-3.33 31.66 -3.66 32.32 -4 33 C-2.02 32.51 -2.02 32.51 0 32 C0.66 31.34 1.32 30.68 2 30 C2 26.7 2 23.4 2 20 C1.34 18.35 0.68 16.7 0 15 C0 12.03 0 9.06 0 6 C-3.63 8.97 -7.26 11.94 -11 15 C-11.66 15 -12.32 15 -13 15 C-13.33 15.99 -13.66 16.98 -14 18 C-14.33 17.01 -14.66 16.02 -15 15 C-12.69 12.03 -10.38 9.06 -8 6 C-6.02 4.35 -4.04 2.7 -2 1 C-1.34 0.67 -0.68 0.34 0 0 Z " fill="#5F0808" transform="translate(136,26)"/>
<path d="M0 0 C0.33 0 0.66 0 1 0 C1.33 2.31 1.66 4.62 2 7 C2.66 7.33 3.32 7.66 4 8 C4.33 6.68 4.66 5.36 5 4 C5 12.58 5 21.16 5 30 C3.02 32.97 3.02 32.97 1 36 C0.01 36.5 0.01 36.5 -1 37 C-1 38.98 -1 40.96 -1 43 C-0.67 43.99 -0.34 44.98 0 46 C-0.66 46 -1.32 46 -2 46 C-2 49.3 -2 52.6 -2 56 C-1.34 56 -0.68 56 0 56 C0 57.98 0 59.96 0 62 C-1.32 62 -2.64 62 -4 62 C-4 61.34 -4 60.68 -4 60 C-4.66 60 -5.32 60 -6 60 C-6.5 58.51 -6.5 58.51 -7 57 C-7.66 57 -8.32 57 -9 57 C-9.33 54.69 -9.66 52.38 -10 50 C-10 49.34 -10 48.68 -10 48 C-10.99 46.68 -11.98 45.36 -13 44 C-13 42.02 -13 40.04 -13 38 C-11.02 35.03 -11.02 35.03 -9 32 C-7.68 30.68 -6.36 29.36 -5 28 C-4.34 23.71 -3.68 19.42 -3 15 C-2.34 13.02 -1.68 11.04 -1 9 C-0.67 6.03 -0.34 3.06 0 0 Z " fill="#F9E7E4" transform="translate(116,87)"/>
<path d="M0 0 C0.66 0.33 1.32 0.66 2 1 C6.29 1 10.58 1 15 1 C15 5.62 15 10.24 15 15 C14.67 15 14.34 15 14 15 C14 11.04 14 7.08 14 3 C13.34 3 12.68 3 12 3 C11.67 3.99 11.34 4.98 11 6 C10.34 6 9.68 6 9 6 C9 11.61 9 17.22 9 23 C8.34 25.64 7.68 28.28 7 31 C4.03 35.95 4.03 35.95 1 41 C0.01 41.66 -0.98 42.32 -2 43 C-2.33 41.68 -2.66 40.36 -3 39 C-3 34.71 -3 30.42 -3 26 C-4.32 27.98 -5.64 29.96 -7 32 C-7.99 32.5 -7.99 32.5 -9 33 C-9 28.05 -9 23.1 -9 18 C-6.53 18.99 -6.53 18.99 -4 20 C-3.01 20.66 -2.02 21.32 -1 22 C-0.34 19.03 0.32 16.06 1 13 C1.33 12.34 1.66 11.68 2 11 C2 8.69 2 6.38 2 4 C1.34 2.68 0.68 1.36 0 0 Z " fill="#E4A9A6" transform="translate(130,70)"/>
<path d="M0 0 C0.66 0.66 1.32 1.32 2 2 C2.5 5.96 2.5 5.96 3 10 C2.67 10.66 2.34 11.32 2 12 C0.02 12 -1.96 12 -4 12 C-5.65 13.65 -7.3 15.3 -9 17 C-9.66 23.6 -10.32 30.2 -11 37 C-12.32 37.99 -13.64 38.98 -15 40 C-16.98 40 -18.96 40 -21 40 C-21.66 39.67 -22.32 39.34 -23 39 C-23.5 36.53 -23.5 36.53 -24 34 C-25.32 35.32 -26.64 36.64 -28 38 C-30.31 38 -32.62 38 -35 38 C-35.66 36.68 -36.32 35.36 -37 34 C-37.06 33.37 -37.12 32.74 -37.18 32.09 C-37.71 26.72 -38.31 21.36 -39 16 C-41.47 15.01 -41.47 15.01 -44 14 C-44.33 12.68 -44.66 11.36 -45 10 C-44.34 9.67 -43.68 9.34 -43 9 C-43 9.99 -43 10.98 -43 12 C-40.53 12.99 -40.53 12.99 -38 14 C-37.01 16.97 -36.02 19.94 -35 23 C-34.67 25.97 -34.34 28.94 -34 32 C-30.04 31.5 -30.04 31.5 -26 31 C-26 26.38 -26 21.76 -26 17 C-25.01 17 -24.02 17 -23 17 C-22.34 19.97 -21.68 22.94 -21 26 C-21 28.64 -21 31.28 -21 34 C-16.55 33.5 -16.55 33.5 -12 33 C-12.5 24.09 -12.5 24.09 -13 15 C-11.35 14.67 -9.7 14.34 -8 14 C-8.5 10.53 -8.5 10.53 -9 7 C-8.01 7 -7.02 7 -6 7 C-6 7.66 -6 8.32 -6 9 C-3.69 9.33 -1.38 9.66 1 10 C0.67 6.7 0.34 3.4 0 0 Z " fill="#230809" transform="translate(115,139)"/>
<path d="M0 0 C0.33 0 0.66 0 1 0 C1.33 2.97 1.66 5.94 2 9 C4.31 12.96 6.62 16.92 9 21 C10.65 23.31 12.3 25.62 14 28 C14 30.31 14 32.62 14 35 C12.68 38.63 11.36 42.26 10 46 C7.33 44.67 4.67 43.33 2 42 C1.67 35.07 1.34 28.14 1 21 C-0.32 18.03 -1.64 15.06 -3 12 C-3.33 10.68 -3.66 9.36 -4 8 C-2.02 8.99 -2.02 8.99 0 10 C0 6.7 0 3.4 0 0 Z " fill="#F4DBD7" transform="translate(119,46)"/>
<path d="M0 0 C0.66 0 1.32 0 2 0 C2.33 2.97 2.66 5.94 3 9 C3.66 10.65 4.32 12.3 5 14 C5 17.3 5 20.6 5 24 C3.68 25.32 2.36 26.64 1 28 C-0.32 27.67 -1.64 27.34 -3 27 C-2.67 26.34 -2.34 25.68 -2 25 C-2 22.03 -2 19.06 -2 16 C-2.99 15.67 -3.98 15.34 -5 15 C-5.33 15.66 -5.66 16.32 -6 17 C-6.66 20.96 -7.32 24.92 -8 29 C-8.66 29.33 -9.32 29.66 -10 30 C-10.99 28.35 -11.98 26.7 -13 25 C-13 20.71 -13 16.42 -13 12 C-8.83 7.83 -4.44 3.88 0 0 Z " fill="#A62121" transform="translate(134,32)"/>
<path d="M0 0 C0.66 0 1.32 0 2 0 C3.65 2.64 5.3 5.28 7 8 C9.31 9.65 11.62 11.3 14 13 C15.65 13.33 17.3 13.66 19 14 C19.33 12.68 19.66 11.36 20 10 C20.33 10.66 20.66 11.32 21 12 C21 16.29 21 20.58 21 25 C20.71 26.28 20.42 27.56 20.12 28.88 C19.01 33.9 17.99 38.95 17 44 C16.67 44 16.34 44 16 44 C16 39.67 16 35.33 16 31 C16.33 29.68 16.66 28.36 17 27 C16.67 27 16.34 27 16 27 C15.34 24.69 14.68 22.38 14 20 C13.34 22.97 12.68 25.94 12 29 C11.67 29.33 11.34 29.66 11 30 C8.36 30 5.72 30 3 30 C2.34 29.01 1.68 28.02 1 27 C1.33 26.01 1.66 25.02 2 24 C2.33 25.32 2.66 26.64 3 28 C5.31 28.33 7.62 28.66 10 29 C10.33 27.02 10.66 25.04 11 23 C9.02 23.33 7.04 23.66 5 24 C5 23.01 5 22.02 5 21 C3.35 21.33 1.7 21.66 0 22 C0.33 20.68 0.66 19.36 1 18 C4.3 16.68 7.6 15.36 11 14 C8.36 11.69 5.72 9.38 3 7 C2.01 6.01 1.02 5.02 0 4 C0 2.68 0 1.36 0 0 Z " fill="#B27579" transform="translate(95,71)"/>
<path d="M0 0 C0.33 0 0.66 0 1 0 C1.33 4.95 1.66 9.9 2 15 C3.98 17.97 3.98 17.97 6 21 C6.33 21.33 6.66 21.66 7 22 C7.33 21.01 7.66 20.02 8 19 C8.99 19.33 9.98 19.66 11 20 C12.32 21.65 13.64 23.3 15 25 C15.33 23.02 15.66 21.04 16 19 C16.33 19 16.66 19 17 19 C17.5 23.45 17.5 23.45 18 28 C16.35 27.67 14.7 27.34 13 27 C12.34 26.01 11.68 25.02 11 24 C10.67 24.66 10.34 25.32 10 26 C8.35 25.34 6.7 24.68 5 24 C4.49 23.19 4.49 23.19 3.98 22.36 C3.53 21.64 3.08 20.92 2.62 20.19 C2.18 19.48 1.74 18.77 1.29 18.04 C0.22 16.35 -0.89 14.67 -2 13 C-1.67 14.32 -1.34 15.64 -1 17 C-0.67 17.66 -0.34 18.32 0 19 C-0.66 19 -1.32 19 -2 19 C-2.33 20.32 -2.66 21.64 -3 23 C-4.32 23.33 -5.64 23.66 -7 24 C-8.98 23.34 -10.96 22.68 -13 22 C-13.33 23.32 -13.66 24.64 -14 26 C-14.99 26.33 -15.98 26.66 -17 27 C-17 25.02 -17 23.04 -17 21 C-15.35 17.7 -13.7 14.4 -12 11 C-10.68 10.34 -9.36 9.68 -8 9 C-7.67 11.31 -7.34 13.62 -7 16 C-6.34 16 -5.68 16 -5 16 C-4.67 14.02 -4.34 12.04 -4 10 C-2.68 6.7 -1.36 3.4 0 0 Z " fill="#D3A9A6" transform="translate(78,57)"/>
<path d="M0 0 C0.66 0 1.32 0 2 0 C2 0.99 2 1.98 2 3 C3.32 3 4.64 3 6 3 C6 4.32 6 5.64 6 7 C5.34 7 4.68 7 4 7 C4 11.62 4 16.24 4 21 C3.34 21.33 2.68 21.66 2 22 C0.02 22 -1.96 22 -4 22 C-5.32 16.39 -6.64 10.78 -8 5 C-8 3.68 -8 2.36 -8 1 C-5.69 1 -3.38 1 -1 1 C-0.67 0.67 -0.34 0.34 0 0 Z " fill="#52455B" transform="translate(85,149)"/>
<path d="M0 0 C2.64 0 5.28 0 8 0 C9.98 0.66 11.96 1.32 14 2 C13.34 3.32 12.68 4.64 12 6 C9.69 8.97 7.38 11.94 5 15 C4.01 15.5 4.01 15.5 3 16 C3.66 16.66 4.32 17.32 5 18 C3.35 18.33 1.7 18.66 0 19 C-2.97 19 -5.94 19 -9 19 C-8.34 18.34 -7.68 17.68 -7 17 C-7.33 15.68 -7.66 14.36 -8 13 C-5.69 12.01 -3.38 11.02 -1 10 C-0.67 9.34 -0.34 8.68 0 8 C0.66 8 1.32 8 2 8 C2 7.01 2 6.02 2 5 C1.01 5 0.02 5 -1 5 C-0.67 3.35 -0.34 1.7 0 0 Z " fill="#A32121" transform="translate(141,53)"/>
<path d="M0 0 C1.65 0 3.3 0 5 0 C7.31 1.65 9.62 3.3 12 5 C12.99 6.48 12.99 6.48 14 8 C13.67 9.98 13.34 11.96 13 14 C12.01 15.48 12.01 15.48 11 17 C9.02 17 7.04 17 5 17 C4.01 15.68 3.02 14.36 2 13 C2.33 11.68 2.66 10.36 3 9 C3.99 10.65 4.98 12.3 6 14 C7.32 14 8.64 14 10 14 C10.33 12.68 10.66 11.36 11 10 C9.68 10.33 8.36 10.66 7 11 C6.67 9.35 6.34 7.7 6 6 C5.01 6 4.02 6 3 6 C2.67 5.34 2.34 4.68 2 4 C1.01 4.33 0.02 4.66 -1 5 C-1 8.63 -1 12.26 -1 16 C-0.34 19.96 0.32 23.92 1 28 C2.32 30.64 3.64 33.28 5 36 C3.68 35.67 2.36 35.34 1 35 C-0.32 33.35 -1.64 31.7 -3 30 C-3.33 25.38 -3.66 20.76 -4 16 C-4 12.37 -4 8.74 -4 5 C-3.01 4.34 -2.02 3.68 -1 3 C-0.67 2.01 -0.34 1.02 0 0 Z " fill="#984C4C" transform="translate(65,79)"/>
<path d="M0 0 C0.66 0 1.32 0 2 0 C3.32 2.64 4.64 5.28 6 8 C6 9.65 6 11.3 6 13 C4.02 13.66 2.04 14.32 0 15 C0 15.66 0 16.32 0 17 C3.96 16.5 3.96 16.5 8 16 C8 17.32 8 18.64 8 20 C5.69 20.66 3.38 21.32 1 22 C-1.31 22 -3.62 22 -6 22 C-6 17.38 -6 12.76 -6 8 C-4.68 7.34 -3.36 6.68 -2 6 C-1.34 4.02 -0.68 2.04 0 0 Z " fill="#F3EAE6" transform="translate(95,123)"/>
<path d="M0 0 C0.66 0 1.32 0 2 0 C2 5.28 2 10.56 2 16 C1.01 20.95 0.02 25.9 -1 31 C-2.98 33.64 -4.96 36.28 -7 39 C-8.32 39.66 -9.64 40.32 -11 41 C-10.5 38.03 -10.5 38.03 -10 35 C-8.35 32.03 -6.7 29.06 -5 26 C-4.67 24.02 -4.34 22.04 -4 20 C-3.67 14.39 -3.34 8.78 -3 3 C-2.01 2.01 -1.02 1.02 0 0 Z " fill="#FAE7E3" transform="translate(142,73)"/>
<path d="M0 0 C0.33 0 0.66 0 1 0 C1.66 2.64 2.32 5.28 3 8 C2.34 8 1.68 8 1 8 C1 11.3 1 14.6 1 18 C1.66 18 2.32 18 3 18 C3 19.98 3 21.96 3 24 C1.68 24 0.36 24 -1 24 C-1 23.34 -1 22.68 -1 22 C-1.66 22 -2.32 22 -3 22 C-3.33 21.01 -3.66 20.02 -4 19 C-4.66 19 -5.32 19 -6 19 C-6.33 16.69 -6.66 14.38 -7 12 C-7 11.34 -7 10.68 -7 10 C-7.99 8.68 -8.98 7.36 -10 6 C-10 5.34 -10 4.68 -10 4 C-6.7 2.68 -3.4 1.36 0 0 Z " fill="#E9B5AF" transform="translate(113,125)"/>
<path d="M0 0 C4.46 0.99 4.46 0.99 9 2 C7.02 2.99 7.02 2.99 5 4 C5.33 4.66 5.66 5.32 6 6 C6 9.3 6 12.6 6 16 C5.34 16 4.68 16 4 16 C2.51 18.47 2.51 18.47 1 21 C0.34 23.97 -0.32 26.94 -1 30 C-1 32.64 -1 35.28 -1 38 C-0.34 38.33 0.32 38.66 1 39 C0.34 40.32 -0.32 41.64 -1 43 C-1.66 41.68 -2.32 40.36 -3 39 C-3 34.71 -3 30.42 -3 26 C-4.32 27.98 -5.64 29.96 -7 32 C-7.99 32.5 -7.99 32.5 -9 33 C-9 28.05 -9 23.1 -9 18 C-6.53 18.99 -6.53 18.99 -4 20 C-3.01 20.66 -2.02 21.32 -1 22 C-0.34 19.03 0.32 16.06 1 13 C1.33 12.34 1.66 11.68 2 11 C2 8.69 2 6.38 2 4 C1.34 2.68 0.68 1.36 0 0 Z " fill="#B06766" transform="translate(130,70)"/>
<path d="M0 0 C4.67 2.33 9.33 4.67 14 7 C15.98 7.66 17.96 8.32 20 9 C19.34 10.98 18.68 12.96 18 15 C19.32 15 20.64 15 22 15 C22.33 14.01 22.66 13.02 23 12 C23 12.99 23 13.98 23 15 C25.97 15 28.94 15 32 15 C32.5 17.47 32.5 17.47 33 20 C32.34 20 31.68 20 31 20 C31 19.01 31 18.02 31 17 C30.01 17.33 29.02 17.66 28 18 C25.69 18 23.38 18 21 18 C21 17.34 21 16.68 21 16 C20.01 16 19.02 16 18 16 C18.33 17.65 18.66 19.3 19 21 C19.66 21.33 20.32 21.66 21 22 C21.33 21.34 21.66 20.68 22 20 C22.99 20.66 23.98 21.32 25 22 C25.66 23.98 26.32 25.96 27 28 C26.01 28 25.02 28 24 28 C24 27.34 24 26.68 24 26 C22.68 26.33 21.36 26.66 20 27 C20.33 25.68 20.66 24.36 21 23 C19.68 22.67 18.36 22.34 17 22 C17 19.03 17 16.06 17 13 C15.35 14.65 13.7 16.3 12 18 C11.34 18.99 10.68 19.98 10 21 C9.34 21 8.68 21 8 21 C8.66 19.35 9.32 17.7 10 16 C10.99 14.68 11.98 13.36 13 12 C13 11.34 13 10.68 13 10 C10.36 9.01 7.72 8.02 5 7 C3.35 5.35 1.7 3.7 0 2 C0 1.34 0 0.68 0 0 Z " fill="#742C42" transform="translate(64,102)"/>
<path d="M0 0 C6.6 0.66 13.2 1.32 20 2 C19.01 2.5 19.01 2.5 18 3 C18 3.66 18 4.32 18 5 C19.65 5.66 21.3 6.32 23 7 C23.99 8.48 23.99 8.48 25 10 C24.67 11.98 24.34 13.96 24 16 C23.34 16.66 22.68 17.32 22 18 C20.35 15.03 18.7 12.06 17 9 C12.71 8.67 8.42 8.34 4 8 C4.66 6.02 5.32 4.04 6 2 C3.03 1.5 3.03 1.5 0 1 C0 0.67 0 0.34 0 0 Z " fill="#966F6E" transform="translate(78,109)"/>
<path d="M0 0 C0.99 0 1.98 0 3 0 C3 5.28 3 10.56 3 16 C2.34 16.33 1.68 16.66 1 17 C-0.98 17 -2.96 17 -5 17 C-5.66 11.72 -6.32 6.44 -7 1 C-3.53 0.5 -3.53 0.5 0 0 Z " fill="#F3F1F2" transform="translate(99,156)"/>
<path d="M0 0 C0.33 0 0.66 0 1 0 C1 4.62 1 9.24 1 14 C0.01 14 -0.98 14 -2 14 C-4.47 17.47 -4.47 17.47 -7 21 C-7.33 21.99 -7.66 22.98 -8 24 C-9.98 24.33 -11.96 24.66 -14 25 C-14 23.68 -14 22.36 -14 21 C-13.34 21 -12.68 21 -12 21 C-11.67 19.02 -11.34 17.04 -11 15 C-8.69 12.03 -6.38 9.06 -4 6 C-2.68 4.02 -1.36 2.04 0 0 Z " fill="#F4EEEA" transform="translate(77,117)"/>
<path d="M0 0 C0.66 0 1.32 0 2 0 C2.33 2.97 2.66 5.94 3 9 C3.66 10.65 4.32 12.3 5 14 C5 17.3 5 20.6 5 24 C4.01 24.99 3.02 25.98 2 27 C1.34 26.67 0.68 26.34 0 26 C0.66 25.34 1.32 24.68 2 24 C2 21.03 2 18.06 2 15 C1.34 14.01 0.68 13.02 0 12 C-1.98 11.34 -3.96 10.68 -6 10 C-6.99 11.98 -7.98 13.96 -9 16 C-9 19.3 -9 22.6 -9 26 C-9.99 25.01 -10.98 24.02 -12 23 C-11.5 18.55 -11.5 18.55 -11 14 C-10.67 12.68 -10.34 11.36 -10 10 C-6.67 6.67 -3.33 3.33 0 0 Z " fill="#CA4F4F" transform="translate(134,32)"/>
<path d="M0 0 C3.63 0 7.26 0 11 0 C14.63 0.99 18.26 1.98 22 3 C25.3 4.65 28.6 6.3 32 8 C32.5 8.5 32.5 8.5 33 9 C33 12.96 33 16.92 33 21 C32.67 21 32.34 21 32 21 C31.5 16.55 31.5 16.55 31 12 C30.01 11.34 29.02 10.68 28 10 C28 9.34 28 8.68 28 8 C27.16 7.82 27.16 7.82 26.31 7.63 C25.55 7.47 24.79 7.3 24 7.12 C23.26 6.96 22.52 6.8 21.75 6.63 C18.15 5.81 14.58 4.89 11 4 C3.74 4 -3.52 4 -11 4 C-10.34 3.34 -9.68 2.68 -9 2 C-6.03 1.34 -3.06 0.68 0 0 Z " fill="#974445" transform="translate(88,34)"/>
<path d="M0 0 C0.66 0.33 1.32 0.66 2 1 C2.99 2.65 3.98 4.3 5 6 C5 8.31 5 10.62 5 13 C3.68 16.63 2.36 20.26 1 24 C-1.67 22.67 -4.33 21.33 -7 20 C-6.67 16.04 -6.34 12.08 -6 8 C-5.34 8.66 -4.68 9.32 -4 10 C-4 11.98 -4 13.96 -4 16 C-3.01 15.01 -2.02 14.02 -1 13 C-0.34 11.68 0.32 10.36 1 9 C0.67 6.03 0.34 3.06 0 0 Z " fill="#E3ABA7" transform="translate(128,68)"/>
<path d="M0 0 C0.66 0 1.32 0 2 0 C2.33 2.97 2.66 5.94 3 9 C3.99 9.33 4.98 9.66 6 10 C6.33 10.99 6.66 11.98 7 13 C7.66 13 8.32 13 9 13 C9 13.66 9 14.32 9 15 C8.34 15 7.68 15 7 15 C7 18.96 7 22.92 7 27 C6.67 27.66 6.34 28.32 6 29 C6.66 29.33 7.32 29.66 8 30 C7.34 30.33 6.68 30.66 6 31 C5.67 31.99 5.34 32.98 5 34 C2.03 34 -0.94 34 -4 34 C-4.66 33.67 -5.32 33.34 -6 33 C-6.33 33.99 -6.66 34.98 -7 36 C-7 35.01 -7 34.02 -7 33 C-8.98 33.5 -8.98 33.5 -11 34 C-11 32.35 -11 30.7 -11 29 C-10.01 29 -9.02 29 -8 29 C-7.67 29.66 -7.34 30.32 -7 31 C-4.03 31.33 -1.06 31.66 2 32 C2.66 30.68 3.32 29.36 4 28 C4 24.04 4 20.08 4 16 C3.01 15.01 2.02 14.02 1 13 C0.67 8.71 0.34 4.42 0 0 Z " fill="#C78797" transform="translate(79,115)"/>
<path d="M0 0 C0.33 0 0.66 0 1 0 C1 2.64 1 5.28 1 8 C0.34 9.98 -0.32 11.96 -1 14 C-1.33 15.32 -1.66 16.64 -2 18 C-2.66 18 -3.32 18 -4 18 C-4 15.69 -4 13.38 -4 11 C-4.66 12.32 -5.32 13.64 -6 15 C-8.64 15 -11.28 15 -14 15 C-14.66 14.34 -15.32 13.68 -16 13 C-16 11.35 -16 9.7 -16 8 C-15.34 8 -14.68 8 -14 8 C-13.67 9.32 -13.34 10.64 -13 12 C-11.02 12 -9.04 12 -7 12 C-6.67 10.68 -6.34 9.36 -6 8 C-4.02 5.36 -2.04 2.72 0 0 Z " fill="#361616" transform="translate(76,129)"/>
<path d="M0 0 C0.66 0 1.32 0 2 0 C1.67 2.97 1.34 5.94 1 9 C-1.31 10.98 -3.62 12.96 -6 15 C-7.32 13.02 -8.64 11.04 -10 9 C-11.32 8.34 -12.64 7.68 -14 7 C-14 6.34 -14 5.68 -14 5 C-10.04 3.68 -6.08 2.36 -2 1 C-1.34 0.67 -0.68 0.34 0 0 Z M-2 4 C-3.98 4.66 -5.96 5.32 -8 6 C-7.34 7.65 -6.68 9.3 -6 11 C-4.68 10.34 -3.36 9.68 -2 9 C-1.34 7.35 -0.68 5.7 0 4 C-0.66 4 -1.32 4 -2 4 Z " fill="#733736" transform="translate(110,107)"/>
<path d="M0 0 C1.65 1.32 3.3 2.64 5 4 C5.33 4.99 5.66 5.98 6 7 C6.66 7.66 7.32 8.32 8 9 C7.01 9.33 6.02 9.66 5 10 C4.67 12.31 4.34 14.62 4 17 C3.34 17 2.68 17 2 17 C1.01 15.35 0.02 13.7 -1 12 C-1 10.02 -1 8.04 -1 6 C-1.66 5.67 -2.32 5.34 -3 5 C-2.34 3.68 -1.68 2.36 -1 1 C-0.67 0.67 -0.34 0.34 0 0 Z " fill="#F1D5D1" transform="translate(60,119)"/>
<path d="M0 0 C2.64 0 5.28 0 8 0 C8 3.3 8 6.6 8 10 C7.67 10.33 7.34 10.66 7 11 C5.02 11 3.04 11 1 11 C0.67 7.37 0.34 3.74 0 0 Z " fill="#F2EEF0" transform="translate(80,160)"/>
<path d="M0 0 C0.33 0 0.66 0 1 0 C1 6.93 1 13.86 1 21 C0.34 21.99 -0.32 22.98 -1 24 C-1.99 24 -2.98 24 -4 24 C-4.66 21.03 -5.32 18.06 -6 15 C-6 13.35 -6 11.7 -6 10 C-4.68 8.35 -3.36 6.7 -2 5 C-1.34 3.35 -0.68 1.7 0 0 Z M-3 11 C-3 14.63 -3 18.26 -3 22 C-2.01 21.01 -1.02 20.02 0 19 C-0.66 16.36 -1.32 13.72 -2 11 C-2.33 11 -2.66 11 -3 11 Z " fill="#954343" transform="translate(127,93)"/>
<path d="M0 0 C0.66 0.66 1.32 1.32 2 2 C1.67 2.66 1.34 3.32 1 4 C1 5.98 1 7.96 1 10 C2.32 11.65 3.64 13.3 5 15 C4.67 15.66 4.34 16.32 4 17 C3.34 17 2.68 17 2 17 C1.67 16.34 1.34 15.68 1 15 C0.01 15.99 -0.98 16.98 -2 18 C-3.98 18.33 -5.96 18.66 -8 19 C-8 18.34 -8 17.68 -8 17 C-6.35 16.34 -4.7 15.68 -3 15 C-3.33 12.69 -3.66 10.38 -4 8 C-4.66 6.02 -5.32 4.04 -6 2 C-6.66 1.67 -7.32 1.34 -8 1 C-7.01 1 -6.02 1 -5 1 C-4.01 1.99 -3.02 2.98 -2 4 C-1.34 2.68 -0.68 1.36 0 0 Z " fill="#A97882" transform="translate(103,121)"/>
<path d="M0 0 C0.33 1.32 0.66 2.64 1 4 C1.66 4 2.32 4 3 4 C2.34 7.3 1.68 10.6 1 14 C1 22.91 1 31.82 1 41 C0.67 41 0.34 41 0 41 C-0.66 35.06 -1.32 29.12 -2 23 C-2 18.05 -2 13.1 -2 8 C-1.34 5.36 -0.68 2.72 0 0 Z " fill="#BA7777" transform="translate(56,59)"/>
<path d="M0 0 C0.33 0.66 0.66 1.32 1 2 C1.66 2.33 2.32 2.66 3 3 C1.02 4.32 -0.96 5.64 -3 7 C-4.32 7.33 -5.64 7.66 -7 8 C-12.61 8 -18.22 8 -24 8 C-24.99 7.01 -25.98 6.02 -27 5 C-27 4.34 -27 3.68 -27 3 C-24.03 3.33 -21.06 3.66 -18 4 C-18 4.66 -18 5.32 -18 6 C-15.03 6.5 -15.03 6.5 -12 7 C-11.67 5.68 -11.34 4.36 -11 3 C-8.03 3.66 -5.06 4.32 -2 5 C-2 4.34 -2 3.68 -2 3 C-1.34 3 -0.68 3 0 3 C0 2.01 0 1.02 0 0 Z " fill="#ECD5C9" transform="translate(109,103)"/>
<path d="M0 0 C3.47 1.48 3.47 1.48 7 3 C7.33 2.34 7.66 1.68 8 1 C8.99 2.32 9.98 3.64 11 5 C10.67 6.98 10.34 8.96 10 11 C9.01 12.48 9.01 12.48 8 14 C6.02 14 4.04 14 2 14 C1.01 12.68 0.02 11.36 -1 10 C-0.67 8.68 -0.34 7.36 0 6 C0.99 7.65 1.98 9.3 3 11 C4.32 11 5.64 11 7 11 C7.33 9.68 7.66 8.36 8 7 C6.68 7.33 5.36 7.66 4 8 C3.67 6.35 3.34 4.7 3 3 C2.01 3 1.02 3 0 3 C0 2.01 0 1.02 0 0 Z " fill="#A58C8C" transform="translate(68,82)"/>
<path d="M0 0 C0.66 0 1.32 0 2 0 C3.65 2.64 5.3 5.28 7 8 C9.31 9.65 11.62 11.3 14 13 C15.65 13.33 17.3 13.66 19 14 C19.33 12.68 19.66 11.36 20 10 C20.33 12.31 20.66 14.62 21 17 C20.67 18.32 20.34 19.64 20 21 C19.01 21 18.02 21 17 21 C17 19.35 17 17.7 17 16 C13.7 16 10.4 16 7 16 C8.32 15.34 9.64 14.68 11 14 C8.36 11.69 5.72 9.38 3 7 C2.01 6.01 1.02 5.02 0 4 C0 2.68 0 1.36 0 0 Z " fill="#B6807F" transform="translate(95,71)"/>
<path d="M0 0 C4.67 2.33 9.33 4.67 14 7 C15.98 7.66 17.96 8.32 20 9 C18.35 10.65 16.7 12.3 15 14 C12.53 17.47 12.53 17.47 10 21 C9.34 21 8.68 21 8 21 C8.66 19.35 9.32 17.7 10 16 C10.99 14.68 11.98 13.36 13 12 C13 11.34 13 10.68 13 10 C10.36 9.01 7.72 8.02 5 7 C3.35 5.35 1.7 3.7 0 2 C0 1.34 0 0.68 0 0 Z " fill="#51201D" transform="translate(64,102)"/>
<path d="M0 0 C2.31 0 4.62 0 7 0 C6.67 2.97 6.34 5.94 6 9 C5.01 10.48 5.01 10.48 4 12 C1.36 12 -1.28 12 -4 12 C-4.66 11.01 -5.32 10.02 -6 9 C-5.67 8.01 -5.34 7.02 -5 6 C-4.67 7.32 -4.34 8.64 -4 10 C-1.69 10.33 0.62 10.66 3 11 C3.33 9.02 3.66 7.04 4 5 C2.02 5.33 0.04 5.66 -2 6 C-2 5.01 -2 4.02 -2 3 C-2.66 2.67 -3.32 2.34 -4 2 C-2.68 1.34 -1.36 0.68 0 0 Z " fill="#9D797B" transform="translate(102,89)"/>
<path d="M0 0 C0.66 0 1.32 0 2 0 C2.66 2.64 3.32 5.28 4 8 C4.66 8.33 5.32 8.66 6 9 C5.67 10.32 5.34 11.64 5 13 C3.68 11.02 2.36 9.04 1 7 C1 6.01 1 5.02 1 4 C0.34 4 -0.32 4 -1 4 C-1.66 7.96 -2.32 11.92 -3 16 C-4.98 16.99 -4.98 16.99 -7 18 C-7 16.02 -7 14.04 -7 12 C-5.35 8.7 -3.7 5.4 -2 2 C-1.34 1.34 -0.68 0.68 0 0 Z " fill="#BD7D7C" transform="translate(68,66)"/>
<path d="M0 0 C0.33 0.99 0.66 1.98 1 3 C3.47 3.99 3.47 3.99 6 5 C6.99 7.97 7.98 10.94 9 14 C9.33 16.97 9.66 19.94 10 23 C13.47 22.5 13.47 22.5 17 22 C16.67 23.32 16.34 24.64 16 26 C14.02 26 12.04 26 10 26 C9.34 23.36 8.68 20.72 8 18 C8 17.01 8 16.02 8 15 C7.34 15 6.68 15 6 15 C5.67 12.36 5.34 9.72 5 7 C2.53 6.01 2.53 6.01 0 5 C-0.33 3.68 -0.66 2.36 -1 1 C-0.67 0.67 -0.34 0.34 0 0 Z " fill="#2C0E0F" transform="translate(71,148)"/>
<path d="M0 0 C2.64 0 5.28 0 8 0 C9.98 0.66 11.96 1.32 14 2 C13.34 3.32 12.68 4.64 12 6 C10.68 6.99 9.36 7.98 8 9 C7.01 9 6.02 9 5 9 C5 8.34 5 7.68 5 7 C4.34 7 3.68 7 3 7 C3 5.68 3 4.36 3 3 C2.01 2.67 1.02 2.34 0 2 C0 1.34 0 0.68 0 0 Z " fill="#C14747" transform="translate(141,53)"/>
<path d="M0 0 C0.66 0.33 1.32 0.66 2 1 C2 1.66 2 2.32 2 3 C1.34 3 0.68 3 0 3 C0 6.3 0 9.6 0 13 C0.66 13 1.32 13 2 13 C2 14.98 2 16.96 2 19 C0.68 19 -0.64 19 -2 19 C-2 18.34 -2 17.68 -2 17 C-2.66 17 -3.32 17 -4 17 C-4.33 16.01 -4.66 15.02 -5 14 C-5.66 14 -6.32 14 -7 14 C-7.33 12.35 -7.66 10.7 -8 9 C-7.01 9 -6.02 9 -5 9 C-4.67 9.66 -4.34 10.32 -4 11 C-2.68 7.37 -1.36 3.74 0 0 Z " fill="#C28B88" transform="translate(114,130)"/>
<path d="M0 0 C1.98 0 3.96 0 6 0 C5.01 0.33 4.02 0.66 3 1 C3.33 6.94 3.66 12.88 4 19 C6.64 19 9.28 19 12 19 C12 19.33 12 19.66 12 20 C8.7 20 5.4 20 2 20 C1.67 18.02 1.34 16.04 1 14 C0.34 14 -0.32 14 -1 14 C-0.67 9.38 -0.34 4.76 0 0 Z " fill="#DDB3B2" transform="translate(86,130)"/>
<path d="M0 0 C0.33 0 0.66 0 1 0 C1.33 2.31 1.66 4.62 2 7 C2.66 7.33 3.32 7.66 4 8 C4.33 6.68 4.66 5.36 5 4 C5 12.58 5 21.16 5 30 C4.01 30.99 3.02 31.98 2 33 C2.33 25.08 2.66 17.16 3 9 C2.01 9 1.02 9 0 9 C0 6.03 0 3.06 0 0 Z " fill="#ECCAC8" transform="translate(116,87)"/>
<path d="M0 0 C0.99 0 1.98 0 3 0 C3 5.28 3 10.56 3 16 C2.67 16 2.34 16 2 16 C2 12.7 2 9.4 2 6 C-0.64 6 -3.28 6 -6 6 C-6.33 4.35 -6.66 2.7 -7 1 C-3.53 0.5 -3.53 0.5 0 0 Z " fill="#BC9DAA" transform="translate(99,156)"/>
<path d="M0 0 C2.64 0.33 5.28 0.66 8 1 C7.67 2.32 7.34 3.64 7 5 C4.69 8.63 2.38 12.26 0 16 C-0.33 16.33 -0.66 16.66 -1 17 C-2.98 17 -4.96 17 -7 17 C-5.35 15.35 -3.7 13.7 -2 12 C0.64 8.7 3.28 5.4 6 2 C3.03 1.51 3.03 1.51 0 1 C0 0.67 0 0.34 0 0 Z " fill="#5E0A0A" transform="translate(149,53)"/>
<path d="M0 0 C0.33 0.66 0.66 1.32 1 2 C2.65 1.67 4.3 1.34 6 1 C6 1.99 6 2.98 6 4 C7.98 3.67 9.96 3.34 12 3 C11.67 4.98 11.34 6.96 11 9 C8.69 8.67 6.38 8.34 4 8 C3.34 6.68 2.68 5.36 2 4 C1.34 3.67 0.68 3.34 0 3 C0 2.01 0 1.02 0 0 Z " fill="#EFD5D1" transform="translate(94,91)"/>
<path d="M0 0 C1.65 0.99 3.3 1.98 5 3 C5.33 4.98 5.66 6.96 6 9 C5.01 10.32 4.02 11.64 3 13 C1.68 11.02 0.36 9.04 -1 7 C-0.67 4.69 -0.34 2.38 0 0 Z " fill="#ECE5E1" transform="translate(97,114)"/>
<path d="M0 0 C0.33 0.66 0.66 1.32 1 2 C0.67 3.32 0.34 4.64 0 6 C1.98 6 3.96 6 6 6 C5.34 6.66 4.68 7.32 4 8 C2.02 8.66 0.04 9.32 -2 10 C-3.32 11.98 -4.64 13.96 -6 16 C-6.33 16 -6.66 16 -7 16 C-7 14.02 -7 12.04 -7 10 C-3.53 5.05 -3.53 5.05 0 0 Z " fill="#DC9B99" transform="translate(129,112)"/>
<path d="M0 0 C0.33 0.66 0.66 1.32 1 2 C-0.65 3.98 -2.3 5.96 -4 8 C-5.98 9.32 -7.96 10.64 -10 12 C-11.32 13.98 -12.64 15.96 -14 18 C-14.33 18 -14.66 18 -15 18 C-15 16.35 -15 14.7 -15 13 C-10.07 8.58 -5.12 4.2 0 0 Z " fill="#F7DDD8" transform="translate(144,119)"/>
<path d="M0 0 C2.64 0 5.28 0 8 0 C9.32 0.66 10.64 1.32 12 2 C14.64 2.66 17.28 3.32 20 4 C20.66 4.66 21.32 5.32 22 6 C22 9.96 22 13.92 22 18 C21.67 18 21.34 18 21 18 C20.67 15.03 20.34 12.06 20 9 C19.01 8.34 18.02 7.68 17 7 C17 6.34 17 5.68 17 5 C16.44 4.88 15.89 4.76 15.31 4.63 C10.18 3.51 5.09 2.3 0 1 C0 0.67 0 0.34 0 0 Z " fill="#A66464" transform="translate(99,37)"/>
<path d="M0 0 C1.65 0 3.3 0 5 0 C6.65 1.32 8.3 2.64 10 4 C10 4.66 10 5.32 10 6 C7.36 5.34 4.72 4.68 2 4 C1.01 4.33 0.02 4.66 -1 5 C-1 5.99 -1 6.98 -1 8 C-1.66 8 -2.32 8 -3 8 C-3 9.98 -3 11.96 -3 14 C-3.33 14 -3.66 14 -4 14 C-4 11.03 -4 8.06 -4 5 C-3.01 4.34 -2.02 3.68 -1 3 C-0.67 2.01 -0.34 1.02 0 0 Z " fill="#8A565C" transform="translate(65,79)"/>
<path d="M0 0 C0.99 0.33 1.98 0.66 3 1 C3 1.66 3 2.32 3 3 C1.68 3 0.36 3 -1 3 C-0.67 3.99 -0.34 4.98 0 6 C1.98 6.66 3.96 7.32 6 8 C5.34 9.32 4.68 10.64 4 12 C1.03 11.5 1.03 11.5 -2 11 C-2.33 9.68 -2.66 8.36 -3 7 C-2.34 5.02 -1.68 3.04 -1 1 C-0.67 0.67 -0.34 0.34 0 0 Z " fill="#D3BAB4" transform="translate(77,136)"/>
<path d="M0 0 C1.32 0 2.64 0 4 0 C3.34 2.97 2.68 5.94 2 9 C1.01 9.99 0.02 10.98 -1 12 C-1 11.01 -1 10.02 -1 9 C-1.99 9 -2.98 9 -4 9 C-3.34 6.69 -2.68 4.38 -2 2 C-1.34 1.34 -0.68 0.68 0 0 Z " fill="#F9E2DE" transform="translate(110,130)"/>
<path d="M0 0 C0.66 0.33 1.32 0.66 2 1 C1.67 1.99 1.34 2.98 1 4 C1.99 5.65 2.98 7.3 4 9 C4 9.99 4 10.98 4 12 C3.01 12 2.02 12 1 12 C0.34 14.31 -0.32 16.62 -1 19 C-1.66 18.34 -2.32 17.68 -3 17 C-2.67 14.36 -2.34 11.72 -2 9 C-1.34 9 -0.68 9 0 9 C-0.33 8.34 -0.66 7.68 -1 7 C-1 5.02 -1 3.04 -1 1 C-0.67 0.67 -0.34 0.34 0 0 Z " fill="#904545" transform="translate(116,124)"/>
<path d="M0 0 C3.3 0.33 6.6 0.66 10 1 C10 5.29 10 9.58 10 14 C9.67 14 9.34 14 9 14 C9 10.7 9 7.4 9 4 C6.36 4 3.72 4 1 4 C0.67 4.66 0.34 5.32 0 6 C0 4.02 0 2.04 0 0 Z " fill="#A28691" transform="translate(79,156)"/>
<path d="M0 0 C3.96 0 7.92 0 12 0 C11.67 1.32 11.34 2.64 11 4 C10.34 4 9.68 4 9 4 C9 3.34 9 2.68 9 2 C6.69 2.33 4.38 2.66 2 3 C-0.47 4.48 -0.47 4.48 -3 6 C-3.66 6 -4.32 6 -5 6 C-4.67 4.68 -4.34 3.36 -4 2 C-2.68 1.34 -1.36 0.68 0 0 Z " fill="#4F2A30" transform="translate(100,87)"/>
<path d="M0 0 C1.32 0 2.64 0 4 0 C4 0.99 4 1.98 4 3 C2.02 3.66 0.04 4.32 -2 5 C-4.31 5 -6.62 5 -9 5 C-9 4.01 -9 3.02 -9 2 C-6.03 1.34 -3.06 0.68 0 0 Z " fill="#395077" transform="translate(102,150)"/>
<path d="M0 0 C0.99 0.99 1.98 1.98 3 3 C3.33 4.98 3.66 6.96 4 9 C4.99 8.67 5.98 8.34 7 8 C7 9.32 7 10.64 7 12 C7.66 12.33 8.32 12.66 9 13 C8.01 13 7.02 13 6 13 C6 12.34 6 11.68 6 11 C4.68 11 3.36 11 2 11 C2 11.66 2 12.32 2 13 C1.34 12.67 0.68 12.34 0 12 C-0.33 11.34 -0.66 10.68 -1 10 C-0.34 10 0.32 10 1 10 C0.67 6.7 0.34 3.4 0 0 Z " fill="#805552" transform="translate(103,135)"/>
<path d="M0 0 C0.66 1.32 1.32 2.64 2 4 C2.66 5.65 3.32 7.3 4 9 C4.66 9 5.32 9 6 9 C6 6.69 6 4.38 6 2 C7.32 1.67 8.64 1.34 10 1 C9.34 2.65 8.68 4.3 8 6 C7.67 7.65 7.34 9.3 7 11 C6.34 11 5.68 11 5 11 C4.67 11.99 4.34 12.98 4 14 C4 12.68 4 11.36 4 10 C2.68 9.34 1.36 8.68 0 8 C0 5.36 0 2.72 0 0 Z " fill="#A05F5E" transform="translate(58,127)"/>
<path d="M0 0 C0.99 0.99 1.98 1.98 3 3 C3.99 5.97 4.98 8.94 6 12 C5.67 14.31 5.34 16.62 5 19 C3.35 19 1.7 19 0 19 C0.99 18.67 1.98 18.34 3 18 C2.01 12.06 1.02 6.12 0 0 Z " fill="#F0C8C5" transform="translate(109,66)"/>
<path d="M0 0 C0.66 0 1.32 0 2 0 C2.33 3.3 2.66 6.6 3 10 C3.33 10.33 3.66 10.66 4 11 C4 12.98 4 14.96 4 17 C3.34 16.01 2.68 15.02 2 14 C1.67 13.34 1.34 12.68 1 12 C1 9.03 1 6.06 1 3 C-1.64 5.31 -4.28 7.62 -7 10 C-7 9.01 -7 8.02 -7 7 C-4.69 4.69 -2.38 2.38 0 0 Z " fill="#941E1E" transform="translate(135,29)"/>
<path d="M0 0 C0.33 0 0.66 0 1 0 C1.33 1.65 1.66 3.3 2 5 C2 7.64 2 10.28 2 13 C5.47 12.5 5.47 12.5 9 12 C8.67 13.32 8.34 14.64 8 16 C5.69 16 3.38 16 1 16 C0.67 10.72 0.34 5.44 0 0 Z " fill="#463437" transform="translate(92,160)"/>
<path d="M0 0 C0.66 0 1.32 0 2 0 C2.66 1.65 3.32 3.3 4 5 C4 6.32 4 7.64 4 9 C2.35 9 0.7 9 -1 9 C-1.33 7.35 -1.66 5.7 -2 4 C-1.34 2.68 -0.68 1.36 0 0 Z " fill="#F6E7DC" transform="translate(67,70)"/>
<path d="M0 0 C0.33 1.32 0.66 2.64 1 4 C1.66 4 2.32 4 3 4 C2.01 9.94 1.02 15.88 0 22 C-0.33 22 -0.66 22 -1 22 C-1 16.06 -1 10.12 -1 4 C-0.67 2.68 -0.34 1.36 0 0 Z " fill="#D89C99" transform="translate(56,59)"/>
<path d="M0 0 C0.33 0 0.66 0 1 0 C1 3.3 1 6.6 1 10 C2.32 10 3.64 10 5 10 C5 13.63 5 17.26 5 21 C4.67 21 4.34 21 4 21 C3.67 18.36 3.34 15.72 3 13 C2.67 15.31 2.34 17.62 2 20 C1.67 20 1.34 20 1 20 C0.67 17.03 0.34 14.06 0 11 C0 7.37 0 3.74 0 0 Z " fill="#F0CDCE" transform="translate(56,73)"/>
<path d="M0 0 C2 2 4 4 6 6 C6.33 4.02 6.66 2.04 7 0 C7.33 0 7.66 0 8 0 C8.33 2.97 8.66 5.94 9 9 C7.35 8.67 5.7 8.34 4 8 C3.34 7.01 2.68 6.02 2 5 C1.67 5.66 1.34 6.32 1 7 C0.01 6.67 -0.98 6.34 -2 6 C-1.34 5.67 -0.68 5.34 0 5 C0 3.35 0 1.7 0 0 Z " fill="#BC7F7F" transform="translate(87,76)"/>
<path d="M0 0 C3.3 0 6.6 0 10 0 C9.01 0.66 8.02 1.32 7 2 C7.66 3.98 8.32 5.96 9 8 C8.01 7.67 7.02 7.34 6 7 C4.68 5.68 3.36 4.36 2 3 C1.34 2.67 0.68 2.34 0 2 C0 1.34 0 0.68 0 0 Z " fill="#3D1616" transform="translate(96,112)"/>
<path d="M0 0 C1.32 0.33 2.64 0.66 4 1 C4 2.98 4 4.96 4 7 C3.01 8.48 3.01 8.48 2 10 C1.34 10 0.68 10 0 10 C0 6.7 0 3.4 0 0 Z " fill="#EAC5CA" transform="translate(122,91)"/>
<path d="M0 0 C0.66 0.33 1.32 0.66 2 1 C2 3.31 2 5.62 2 8 C2.33 9.98 2.66 11.96 3 14 C2.67 14 2.34 14 2 14 C1.67 16.64 1.34 19.28 1 22 C0.67 22 0.34 22 0 22 C-0.33 16.72 -0.66 11.44 -1 6 C-0.67 4.02 -0.34 2.04 0 0 Z " fill="#C18787" transform="translate(62,87)"/>
<path d="M0 0 C1.65 0 3.3 0 5 0 C5.33 2.31 5.66 4.62 6 7 C5.67 6.01 5.34 5.02 5 4 C3.02 4.33 1.04 4.66 -1 5 C-1 4.01 -1 3.02 -1 2 C-1.66 1.67 -2.32 1.34 -3 1 C-2.01 0.67 -1.02 0.34 0 0 Z " fill="#D88F95" transform="translate(101,90)"/>
<path d="M0 0 C0.99 0 1.98 0 3 0 C3 1.32 3 2.64 3 4 C-0.3 4 -3.6 4 -7 4 C-7 3.01 -7 2.02 -7 1 C-3.53 0.5 -3.53 0.5 0 0 Z " fill="#F2EAE6" transform="translate(98,145)"/>
<path d="M0 0 C0.33 0 0.66 0 1 0 C1 2.31 1 4.62 1 7 C0.67 8.32 0.34 9.64 0 11 C0.66 11 1.32 11 2 11 C1.34 12.32 0.68 13.64 0 15 C-0.99 15.99 -1.98 16.98 -3 18 C-3.66 17.67 -4.32 17.34 -5 17 C-4.34 16.34 -3.68 15.68 -3 15 C-2.34 10.71 -1.68 6.42 -1 2 C-0.67 1.34 -0.34 0.68 0 0 Z " fill="#E8C5C1" transform="translate(114,100)"/>
<path d="M0 0 C0.66 1.32 1.32 2.64 2 4 C3.98 6.97 3.98 6.97 6 10 C6 12.31 6 14.62 6 17 C5.67 17 5.34 17 5 17 C4.34 14.69 3.68 12.38 3 10 C2.01 10 1.02 10 0 10 C0 6.7 0 3.4 0 0 Z " fill="#D39593" transform="translate(143,89)"/>
<path d="M0 0 C2.47 0.99 2.47 0.99 5 2 C6.32 3.32 7.64 4.64 9 6 C8.67 7.32 8.34 8.64 8 10 C8 9.01 8 8.02 8 7 C6.68 7.33 5.36 7.66 4 8 C3.67 6.35 3.34 4.7 3 3 C2.01 3 1.02 3 0 3 C0 2.01 0 1.02 0 0 Z " fill="#C28085" transform="translate(68,82)"/>
<path d="M0 0 C1.65 1.32 3.3 2.64 5 4 C4.67 4.99 4.34 5.98 4 7 C2.02 7.33 0.04 7.66 -2 8 C-2 6.68 -2 5.36 -2 4 C-1.34 4 -0.68 4 0 4 C0 2.68 0 1.36 0 0 Z " fill="#C5A39D" transform="translate(65,134)"/>
<path d="M0 0 C0.66 0 1.32 0 2 0 C2.33 2.97 2.66 5.94 3 9 C3.99 9.33 4.98 9.66 6 10 C5.67 11.32 5.34 12.64 5 14 C3.68 13.67 2.36 13.34 1 13 C0.67 8.71 0.34 4.42 0 0 Z " fill="#9E6276" transform="translate(79,115)"/>
<path d="M0 0 C0.33 0 0.66 0 1 0 C1 4.62 1 9.24 1 14 C0.34 13.34 -0.32 12.68 -1 12 C-1.33 10.02 -1.66 8.04 -2 6 C-2 5.01 -2 4.02 -2 3 C-1.34 2.01 -0.68 1.02 0 0 Z " fill="#A39492" transform="translate(77,117)"/>
<path d="M0 0 C2.31 0.33 4.62 0.66 7 1 C6.34 2.32 5.68 3.64 5 5 C2.69 5 0.38 5 -2 5 C-1.34 3.35 -0.68 1.7 0 0 Z " fill="#AF8A90" transform="translate(84,112)"/>
<path d="M0 0 C0.33 0.99 0.66 1.98 1 3 C2.32 3.66 3.64 4.32 5 5 C4.01 5.5 4.01 5.5 3 6 C2.67 7.32 2.34 8.64 2 10 C0.68 10.33 -0.64 10.66 -2 11 C-2.33 10.34 -2.66 9.68 -3 9 C-2.34 8.34 -1.68 7.68 -1 7 C-0.67 7.33 -0.34 7.66 0 8 C0.33 7.01 0.66 6.02 1 5 C0.01 4.67 -0.98 4.34 -2 4 C-1.34 3.67 -0.68 3.34 0 3 C0 2.01 0 1.02 0 0 Z " fill="#DCB8B0" transform="translate(73,70)"/>
<path d="M0 0 C0.33 0 0.66 0 1 0 C1 1.98 1 3.96 1 6 C4.47 5.5 4.47 5.5 8 5 C7.67 6.32 7.34 7.64 7 9 C5.02 9 3.04 9 1 9 C0.67 8.34 0.34 7.68 0 7 C0 4.69 0 2.38 0 0 Z " fill="#463D40" transform="translate(80,165)"/>
<path d="M0 0 C0.99 0 1.98 0 3 0 C3.33 0.66 3.66 1.32 4 2 C5.65 2.33 7.3 2.66 9 3 C9.33 3.66 9.66 4.32 10 5 C8.35 4.67 6.7 4.34 5 4 C4.67 4.99 4.34 5.98 4 7 C4 6.01 4 5.02 4 4 C2.68 4.33 1.36 4.66 0 5 C0 3.35 0 1.7 0 0 Z " fill="#3A3139" transform="translate(68,144)"/>
<path d="M0 0 C0.66 0 1.32 0 2 0 C2.33 1.32 2.66 2.64 3 4 C5.31 4.33 7.62 4.66 10 5 C10 5.66 10 6.32 10 7 C7.36 7 4.72 7 2 7 C1.34 6.34 0.68 5.68 0 5 C0 3.35 0 1.7 0 0 Z " fill="#240A09" transform="translate(60,137)"/>
<path d="M0 0 C1.65 0 3.3 0 5 0 C5.66 2.64 6.32 5.28 7 8 C5.02 7.34 3.04 6.68 1 6 C1.33 4.35 1.66 2.7 2 1 C1.34 0.67 0.68 0.34 0 0 Z " fill="#A45656" transform="translate(133,132)"/>
<path d="M0 0 C0.66 0.66 1.32 1.32 2 2 C1.67 4.97 1.34 7.94 1 11 C0.01 11 -0.98 11 -2 11 C-1.67 9.35 -1.34 7.7 -1 6 C-1.66 5.34 -2.32 4.68 -3 4 C-2.01 4 -1.02 4 0 4 C0 2.68 0 1.36 0 0 Z " fill="#D49DA0" transform="translate(114,81)"/>
<path d="M0 0 C2.97 0 5.94 0 9 0 C9 0.99 9 1.98 9 3 C6.03 3 3.06 3 0 3 C0 2.01 0 1.02 0 0 Z " fill="#E3A6BB" transform="translate(92,157)"/>
<path d="M0 0 C0.66 0 1.32 0 2 0 C2 0.99 2 1.98 2 3 C3.32 3 4.64 3 6 3 C6 4.32 6 5.64 6 7 C3.03 6.5 3.03 6.5 0 6 C0 4.02 0 2.04 0 0 Z " fill="#566E91" transform="translate(85,149)"/>
<path d="M0 0 C0.99 0 1.98 0 3 0 C3 1.98 3 3.96 3 6 C1.68 6 0.36 6 -1 6 C-1 5.34 -1 4.68 -1 4 C-1.66 4 -2.32 4 -3 4 C-3 3.34 -3 2.68 -3 2 C-2.01 1.34 -1.02 0.68 0 0 Z " fill="#D2C4B9" transform="translate(113,143)"/>
<path d="M0 0 C0.33 1.32 0.66 2.64 1 4 C0.34 4.66 -0.32 5.32 -1 6 C-8 10 -8 10 -10 11 C-9.67 10.01 -9.34 9.02 -9 8 C-7.02 6.35 -5.04 4.7 -3 3 C-2.34 3 -1.68 3 -1 3 C-0.67 2.01 -0.34 1.02 0 0 Z " fill="#AA5C5B" transform="translate(148,121)"/>
<path d="M0 0 C0.33 0 0.66 0 1 0 C1 1.98 1 3.96 1 6 C-1.97 8.47 -1.97 8.47 -5 11 C-4.67 9.35 -4.34 7.7 -4 6 C-2.68 4.02 -1.36 2.04 0 0 Z " fill="#EDBFBB" transform="translate(69,60)"/>
<path d="M0 0 C1.32 1.65 2.64 3.3 4 5 C3.67 5.66 3.34 6.32 3 7 C1.35 6.67 -0.3 6.34 -2 6 C-1.67 4.35 -1.34 2.7 -1 1 C-0.67 0.67 -0.34 0.34 0 0 Z " fill="#DBCCC6" transform="translate(68,130)"/>
<path d="M0 0 C0.33 0 0.66 0 1 0 C1 1.65 1 3.3 1 5 C-0.65 5.66 -2.3 6.32 -4 7 C-4.99 7.5 -4.99 7.5 -6 8 C-5.67 6.68 -5.34 5.36 -5 4 C-3.35 2.68 -1.7 1.36 0 0 Z " fill="#D59594" transform="translate(113,125)"/>
<path d="M0 0 C0.33 0 0.66 0 1 0 C0.67 2.31 0.34 4.62 0 7 C-1.48 9.47 -1.48 9.47 -3 12 C-3.66 12 -4.32 12 -5 12 C-4.67 10.68 -4.34 9.36 -4 8 C-2.68 5.36 -1.36 2.72 0 0 Z " fill="#622929" transform="translate(127,93)"/>
<path d="M0 0 C0.33 0 0.66 0 1 0 C1 2.97 1 5.94 1 9 C0.01 9.5 0.01 9.5 -1 10 C-1.66 10.99 -2.32 11.98 -3 13 C-3 11.02 -3 9.04 -3 7 C-2.01 4.69 -1.02 2.38 0 0 Z " fill="#C48789" transform="translate(77,60)"/>
<path d="M0 0 C0.33 0 0.66 0 1 0 C1 2.64 1 5.28 1 8 C0.34 7.01 -0.32 6.02 -1 5 C-1.99 5.99 -2.98 6.98 -4 8 C-4.66 7.67 -5.32 7.34 -6 7 C-4.68 5.02 -3.36 3.04 -2 1 C-1.34 0.67 -0.68 0.34 0 0 Z " fill="#E0D8D6" transform="translate(75,122)"/>
<path d="M0 0 C0.66 0 1.32 0 2 0 C1.34 1.65 0.68 3.3 0 5 C-1.32 6.98 -2.64 8.96 -4 11 C-4.66 11 -5.32 11 -6 11 C-5.34 9.35 -4.68 7.7 -4 6 C-2.68 4.02 -1.36 2.04 0 0 Z " fill="#291111" transform="translate(78,112)"/>
<path d="M0 0 C0.66 0.66 1.32 1.32 2 2 C2.99 4.64 3.98 7.28 5 10 C3.68 9.67 2.36 9.34 1 9 C0.34 7.68 -0.32 6.36 -1 5 C-0.67 3.35 -0.34 1.7 0 0 Z " fill="#F1D9CF" transform="translate(76,68)"/>
<path d="M0 0 C0.66 0 1.32 0 2 0 C2 2.31 2 4.62 2 7 C1.01 7 0.02 7 -1 7 C-1.33 5.35 -1.66 3.7 -2 2 C-1.34 1.34 -0.68 0.68 0 0 Z " fill="#7F3B3B" transform="translate(123,131)"/>
<path d="M0 0 C0.66 0 1.32 0 2 0 C1.39 4.34 0.74 8.68 0 13 C-0.33 13 -0.66 13 -1 13 C-1 9.04 -1 5.08 -1 1 C-0.67 0.67 -0.34 0.34 0 0 Z " fill="#964846" transform="translate(121,118)"/>
<path d="M0 0 C1.32 0.33 2.64 0.66 4 1 C4 1.66 4 2.32 4 3 C3.01 3 2.02 3 1 3 C1.33 6.63 1.66 10.26 2 14 C1.01 14.5 1.01 14.5 0 15 C0 10.05 0 5.1 0 0 Z " fill="#B27478" transform="translate(121,88)"/>
<path d="M0 0 C0.33 0.99 0.66 1.98 1 3 C1.99 3.33 2.98 3.66 4 4 C4.66 5.32 5.32 6.64 6 8 C4.68 8 3.36 8 2 8 C1.67 8.66 1.34 9.32 1 10 C0.67 6.7 0.34 3.4 0 0 Z " fill="#DEB5B3" transform="translate(94,72)"/>
<path d="M0 0 C2.31 0.33 4.62 0.66 7 1 C7.66 2.32 8.32 3.64 9 5 C6.03 4.01 3.06 3.02 0 2 C0 1.34 0 0.68 0 0 Z " fill="#401A1C" transform="translate(66,80)"/>
<path d="M0 0 C0.33 0 0.66 0 1 0 C1 2.64 1 5.28 1 8 C0.01 8.5 0.01 8.5 -1 9 C-1 7.68 -1 6.36 -1 5 C-1.66 5 -2.32 5 -3 5 C-2.34 3.68 -1.68 2.36 -1 1 C-0.67 0.67 -0.34 0.34 0 0 Z " fill="#553638" transform="translate(76,129)"/>
<path d="M0 0 C0.66 0.33 1.32 0.66 2 1 C-0.97 4.96 -0.97 4.96 -4 9 C-4.99 9.5 -4.99 9.5 -6 10 C-5.34 8.68 -4.68 7.36 -4 6 C-3.01 4.35 -2.02 2.7 -1 1 C-0.67 0.67 -0.34 0.34 0 0 Z " fill="#673B3A" transform="translate(71,123)"/>
<path d="M0 0 C1.98 0 3.96 0 6 0 C5.34 1.65 4.68 3.3 4 5 C3.34 5 2.68 5 2 5 C2 4.34 2 3.68 2 3 C1.34 3 0.68 3 0 3 C0 2.01 0 1.02 0 0 Z " fill="#DC6A6A" transform="translate(144,57)"/>
<path d="M0 0 C2.97 0.33 5.94 0.66 9 1 C9 1.66 9 2.32 9 3 C6.69 3 4.38 3 2 3 C1.34 2.67 0.68 2.34 0 2 C0 1.34 0 0.68 0 0 Z " fill="#E3A9BD" transform="translate(79,156)"/>
<path d="M0 0 C0.66 0 1.32 0 2 0 C2 0.99 2 1.98 2 3 C3.65 3 5.3 3 7 3 C7.33 3.66 7.66 4.32 8 5 C5.69 5 3.38 5 1 5 C0.67 3.35 0.34 1.7 0 0 Z " fill="#49455D" transform="translate(91,152)"/>
<path d="M0 0 C0.66 0 1.32 0 2 0 C1.34 2.97 0.68 5.94 0 9 C-0.99 9.33 -1.98 9.66 -3 10 C-2.01 6.7 -1.02 3.4 0 0 Z " fill="#913A3A" transform="translate(151,115)"/>
<path d="M0 0 C0.66 0.99 1.32 1.98 2 3 C0.52 5.47 0.52 5.47 -1 8 C-1.66 8 -2.32 8 -3 8 C-3 6.02 -3 4.04 -3 2 C-2.01 2.5 -2.01 2.5 -1 3 C-0.67 2.01 -0.34 1.02 0 0 Z " fill="#D09CA0" transform="translate(64,76)"/>
<path d="M0 0 C2.97 0.5 2.97 0.5 6 1 C6 1.99 6 2.98 6 4 C3.03 3.5 3.03 3.5 0 3 C0 2.01 0 1.02 0 0 Z " fill="#486188" transform="translate(77,150)"/>
<path d="M0 0 C2.64 0 5.28 0 8 0 C7.67 1.32 7.34 2.64 7 4 C6.34 4 5.68 4 5 4 C5 3.34 5 2.68 5 2 C3.35 2 1.7 2 0 2 C0 1.34 0 0.68 0 0 Z " fill="#3F1A1C" transform="translate(104,87)"/>
<path d="M0 0 C0.33 0 0.66 0 1 0 C1 3.3 1 6.6 1 10 C0.01 9.67 -0.98 9.34 -2 9 C-1.34 6.03 -0.68 3.06 0 0 Z " fill="#CD8C8A" transform="translate(135,76)"/>
<path d="M0 0 C1.98 0 3.96 0 6 0 C6 0.99 6 1.98 6 3 C4.02 3 2.04 3 0 3 C0 2.01 0 1.02 0 0 Z " fill="#547096" transform="translate(93,152)"/>
<path d="M0 0 C0.66 0.66 1.32 1.32 2 2 C1.34 4.64 0.68 7.28 0 10 C-0.99 8.68 -1.98 7.36 -3 6 C-2.01 4.02 -1.02 2.04 0 0 Z " fill="#BF8F8E" transform="translate(103,121)"/>
<path d="M0 0 C1.65 0.33 3.3 0.66 5 1 C4.01 1.66 3.02 2.32 2 3 C1.67 5.31 1.34 7.62 1 10 C0.34 9.67 -0.32 9.34 -1 9 C-0.67 6.03 -0.34 3.06 0 0 Z " fill="#D9A09D" transform="translate(63,126)"/>
<path d="M0 0 C1.32 1.32 2.64 2.64 4 4 C3.67 5.65 3.34 7.3 3 9 C2.34 7.68 1.68 6.36 1 5 C0.34 4.01 -0.32 3.02 -1 2 C-0.67 1.34 -0.34 0.68 0 0 Z " fill="#7F5257" transform="translate(75,83)"/>
<path d="M0 0 C1.49 0.99 1.49 0.99 3 2 C3 3.98 3 5.96 3 8 C2.01 7.67 1.02 7.34 0 7 C0 4.69 0 2.38 0 0 Z " fill="#C17979" transform="translate(128,133)"/>
<path d="M0 0 C0.99 0.66 1.98 1.32 3 2 C2.67 2.99 2.34 3.98 2 5 C0.33 5 -1.33 5 -3 5 C-2.34 3.68 -1.68 2.36 -1 1 C-0.67 0.67 -0.34 0.34 0 0 Z " fill="#CB918F" transform="translate(60,119)"/>
<path d="M0 0 C0.33 0 0.66 0 1 0 C1.66 2.97 2.32 5.94 3 9 C2.01 9.33 1.02 9.66 0 10 C0 6.7 0 3.4 0 0 Z " fill="#DB9FB0" transform="translate(122,91)"/>
<path d="M0 0 C0.66 0 1.32 0 2 0 C2.66 0.66 3.32 1.32 4 2 C4.33 3.32 4.66 4.64 5 6 C4.01 6.49 4.01 6.49 3 7 C2.01 5.35 1.02 3.7 0 2 C0 1.34 0 0.68 0 0 Z " fill="#8F3534" transform="translate(121,55)"/>
<path d="M0 0 C2.97 0.5 2.97 0.5 6 1 C5.01 1.5 5.01 1.5 4 2 C3.67 2.99 3.34 3.98 3 5 C2.01 4.34 1.02 3.68 0 3 C0 2.01 0 1.02 0 0 Z " fill="#343C5E" transform="translate(73,148)"/>
<path d="M0 0 C1.98 0.66 3.96 1.32 6 2 C6 2.66 6 3.32 6 4 C3.03 3.5 3.03 3.5 0 3 C0 2.01 0 1.02 0 0 Z " fill="#E9E1DC" transform="translate(75,144)"/>
<path d="M0 0 C0.99 0.33 1.98 0.66 3 1 C3.66 2.32 4.32 3.64 5 5 C4.01 5 3.02 5 2 5 C2 4.34 2 3.68 2 3 C0.68 3.33 -0.64 3.66 -2 4 C-1.34 2.68 -0.68 1.36 0 0 Z " fill="#6D2B40" transform="translate(86,125)"/>
<path d="M0 0 C1.98 0.66 3.96 1.32 6 2 C6 3.32 6 4.64 6 6 C4.02 4.35 2.04 2.7 0 1 C0 0.67 0 0.34 0 0 Z " fill="#D9C5BE" transform="translate(73,81)"/>
<path d="M0 0 C1.32 0.99 2.64 1.98 4 3 C3.01 3.99 2.02 4.98 1 6 C1 5.01 1 4.02 1 3 C0.01 3 -0.98 3 -2 3 C-1.67 2.34 -1.34 1.68 -1 1 C-0.67 0.67 -0.34 0.34 0 0 Z " fill="#E3BEBD" transform="translate(108,136)"/>
<path d="M0 0 C0.99 0.33 1.98 0.66 3 1 C3 1.66 3 2.32 3 3 C1.68 3 0.36 3 -1 3 C-1.33 4.32 -1.66 5.64 -2 7 C-2 5.35 -2 3.7 -2 2 C-1.34 1.34 -0.68 0.68 0 0 Z " fill="#BF8995" transform="translate(77,136)"/>
<path d="M0 0 C1.48 0.99 1.48 0.99 3 2 C2.34 2 1.68 2 1 2 C1.33 3.32 1.66 4.64 2 6 C1.34 6.66 0.68 7.32 0 8 C-0.33 6.68 -0.66 5.36 -1 4 C-0.67 2.68 -0.34 1.36 0 0 Z " fill="#D8C8C3" transform="translate(97,114)"/>
<path d="M0 0 C1.98 1.65 3.96 3.3 6 5 C5.67 5.66 5.34 6.32 5 7 C4.01 6.67 3.02 6.34 2 6 C1.34 4.02 0.68 2.04 0 0 Z " fill="#AC6362" transform="translate(54,113)"/>
<path d="M0 0 C2.97 0 5.94 0 9 0 C9 0.33 9 0.66 9 1 C6.03 1.66 3.06 2.32 0 3 C0 2.01 0 1.02 0 0 Z " fill="#AF6E6D" transform="translate(75,38)"/>
<path d="M0 0 C0.99 0 1.98 0 3 0 C2.67 1.65 2.34 3.3 2 5 C1.34 5 0.68 5 0 5 C0 3.35 0 1.7 0 0 Z " fill="#FFFFFF" transform="translate(68,144)"/>
<path d="M0 0 C2.47 0.5 2.47 0.5 5 1 C5 1.66 5 2.32 5 3 C3.35 3.33 1.7 3.66 0 4 C0 2.68 0 1.36 0 0 Z " fill="#D7C4B9" transform="translate(63,138)"/>
<path d="M0 0 C1.32 0 2.64 0 4 0 C4.66 0.33 5.32 0.66 6 1 C6 1.99 6 2.98 6 4 C4.35 3.67 2.7 3.34 1 3 C0.67 2.01 0.34 1.02 0 0 Z " fill="#E7BBB7" transform="translate(59,122)"/>
<path d="M0 0 C1.65 0 3.3 0 5 0 C4.67 0.99 4.34 1.98 4 3 C2.68 3 1.36 3 0 3 C0 2.01 0 1.02 0 0 Z " fill="#FAE3E0" transform="translate(71,91)"/>
<path d="M0 0 C0.33 0.99 0.66 1.98 1 3 C1.99 3.33 2.98 3.66 4 4 C3.01 4.66 2.02 5.32 1 6 C0.01 5.01 -0.98 4.02 -2 3 C-1.34 2.67 -0.68 2.34 0 2 C0 1.34 0 0.68 0 0 Z " fill="#DECBC2" transform="translate(96,83)"/>
<path d="M0 0 C0.66 0 1.32 0 2 0 C2 1.65 2 3.3 2 5 C1.01 5 0.02 5 -1 5 C-0.67 3.35 -0.34 1.7 0 0 Z " fill="#DCBBC4" transform="translate(93,113)"/>
<path d="M0 0 C1.65 0.33 3.3 0.66 5 1 C3.68 1.99 2.36 2.98 1 4 C0.34 4 -0.32 4 -1 4 C-0.67 2.68 -0.34 1.36 0 0 Z " fill="#88585F" transform="translate(96,89)"/>
<path d="M0 0 C1.49 0.99 1.49 0.99 3 2 C1.68 3.32 0.36 4.64 -1 6 C-1 4.35 -1 2.7 -1 1 C-0.67 0.67 -0.34 0.34 0 0 Z " fill="#E8B5B1" transform="translate(130,131)"/>
<path d="M0 0 C0.99 0 1.98 0 3 0 C3 1.98 3 3.96 3 6 C2.01 4.68 1.02 3.36 0 2 C0 1.34 0 0.68 0 0 Z " fill="#8D2551" transform="translate(92,119)"/>
<path d="M0 0 C0.99 0.33 1.98 0.66 3 1 C2.01 2.32 1.02 3.64 0 5 C0 4.34 0 3.68 0 3 C-0.66 2.67 -1.32 2.34 -2 2 C-1.34 1.34 -0.68 0.68 0 0 Z " fill="#7D444D" transform="translate(81,112)"/>
<path d="M0 0 C1.65 1.32 3.3 2.64 5 4 C4.67 4.66 4.34 5.32 4 6 C2.68 4.68 1.36 3.36 0 2 C0 1.34 0 0.68 0 0 Z " fill="#CA9999" transform="translate(89,79)"/>
<path d="M0 0 C0.99 0 1.98 0 3 0 C3 0.99 3 1.98 3 3 C1.68 3.33 0.36 3.66 -1 4 C-0.67 2.68 -0.34 1.36 0 0 Z " fill="#576D90" transform="translate(103,150)"/>
<path d="M0 0 C1.32 0.99 2.64 1.98 4 3 C3.67 3.66 3.34 4.32 3 5 C2.34 5 1.68 5 1 5 C0.67 3.35 0.34 1.7 0 0 Z " fill="#B37C7B" transform="translate(104,133)"/>
<path d="M0 0 C0.99 0.33 1.98 0.66 3 1 C3 2.32 3 3.64 3 5 C2.34 5 1.68 5 1 5 C0.67 3.35 0.34 1.7 0 0 Z " fill="#815450" transform="translate(101,130)"/>
<path d="M0 0 C1.32 0.33 2.64 0.66 4 1 C4 1.99 4 2.98 4 4 C2.68 3.34 1.36 2.68 0 2 C0 1.34 0 0.68 0 0 Z " fill="#AC4573" transform="translate(89,126)"/>
<path d="M0 0 C0.99 0 1.98 0 3 0 C2.34 1.32 1.68 2.64 1 4 C0.34 4 -0.32 4 -1 4 C-0.67 2.68 -0.34 1.36 0 0 Z " fill="#DFB7C0" transform="translate(88,113)"/>
<path d="M0 0 C0.33 0 0.66 0 1 0 C1 1.65 1 3.3 1 5 C0.01 4.67 -0.98 4.34 -2 4 C-1.34 2.68 -0.68 1.36 0 0 Z " fill="#E17474" transform="translate(132,38)"/>
<path d="M0 0 C0.99 0 1.98 0 3 0 C3 0.99 3 1.98 3 3 C2.01 3 1.02 3 0 3 C0 2.01 0 1.02 0 0 Z " fill="#63779B" transform="translate(77,150)"/>
<path d="M0 0 C0.99 0.33 1.98 0.66 3 1 C1.68 1.99 0.36 2.98 -1 4 C-0.67 2.68 -0.34 1.36 0 0 Z " fill="#9B504F" transform="translate(108,115)"/>
<path d="M0 0 C2.47 0.5 2.47 0.5 5 1 C4.01 1.66 3.02 2.32 2 3 C1.34 2.01 0.68 1.02 0 0 Z " fill="#EDC2BC" transform="translate(100,77)"/>
<path d="M0 0 C1.32 0 2.64 0 4 0 C3.67 0.99 3.34 1.98 3 3 C2.01 2.67 1.02 2.34 0 2 C0 1.34 0 0.68 0 0 Z " fill="#000000" transform="translate(147,48)"/>
<path d="M0 0 C0.99 0.33 1.98 0.66 3 1 C3 1.66 3 2.32 3 3 C2.01 3 1.02 3 0 3 C0 2.01 0 1.02 0 0 Z " fill="#45587C" transform="translate(73,148)"/>
<path d="M0 0 C1.98 0.99 1.98 0.99 4 2 C3.01 2.33 2.02 2.66 1 3 C0.67 2.01 0.34 1.02 0 0 Z " fill="#5F2B2B" transform="translate(64,102)"/>
<path d="M0 0 C1.98 0.99 1.98 0.99 4 2 C3.01 2.33 2.02 2.66 1 3 C0.67 2.01 0.34 1.02 0 0 Z " fill="#F0CBC2" transform="translate(96,77)"/>
</svg>
